<?xml version="1.0" standalone="no"?>
<!DOCTYPE svg PUBLIC "-//W3C//DTD SVG 20010904//EN"
 "http://www.w3.org/TR/2001/REC-SVG-20010904/DTD/svg10.dtd">
<svg version="1.0" xmlns="http://www.w3.org/2000/svg"
 width="300.000000pt" height="300.000000pt" viewBox="0 0 300.000000 300.000000"
 preserveAspectRatio="xMidYMid meet">
<metadata>
Created by potrace 1.11, written by Peter Selinger 2001-2013
</metadata>
<g transform="translate(0.000000,300.000000) scale(0.100000,-0.100000)"
fill="#000000" stroke="none">
<path d="M0 2811 l0 -189 53 -23 c42 -19 69 -23 142 -23 83 1 242 30 281 52
12 6 -14 44 -112 168 -69 87 -133 169 -141 182 -14 20 -23 22 -119 22 l-104 0
0 -189z"/>
<path d="M966 2973 c19 -75 115 -246 158 -282 30 -25 16 -28 -41 -8 -95 32
-212 21 -398 -38 -355 -113 -506 -136 -622 -95 -32 11 -59 20 -60 20 -2 0 -3
-25 -3 -56 0 -72 44 -167 165 -359 123 -195 185 -275 298 -387 95 -93 137
-122 202 -139 19 -6 -3 -7 -60 -5 l-90 4 63 -12 c75 -16 83 -22 56 -44 -241
-194 -310 -225 -423 -196 -30 8 -61 20 -68 26 -9 7 -13 7 -13 0 0 -26 166
-202 190 -202 6 0 10 -4 10 -9 0 -5 -33 -1 -72 10 -40 10 -78 19 -85 19 -15 0
57 -130 102 -186 46 -56 116 -101 196 -125 60 -18 67 -23 83 -59 16 -36 51
-73 77 -82 5 -2 0 -21 -11 -43 -23 -44 -27 -126 -9 -189 10 -38 10 -41 -18
-60 -59 -40 -190 -182 -214 -231 -19 -40 -25 -69 -27 -147 l-4 -98 1326 0
1326 0 0 215 0 215 -27 -7 c-16 -5 -56 -7 -90 -6 -51 1 -76 9 -133 39 -62 32
-70 40 -70 65 0 29 0 29 63 30 94 1 40 17 -60 18 -45 1 -85 5 -88 11 -8 12 68
67 105 75 23 5 37 0 65 -21 40 -30 52 -25 57 21 3 29 4 30 60 30 43 0 64 -6
87 -23 25 -18 31 -20 31 -7 0 18 -55 45 -110 54 -29 5 -36 11 -38 33 -4 35 42
104 103 155 25 20 45 44 45 52 0 18 -89 -68 -127 -121 -14 -21 -29 -38 -34
-38 -5 0 -13 18 -19 41 -12 43 -69 114 -100 124 -17 5 -16 10 17 53 20 26 45
66 55 90 10 23 26 42 34 42 8 0 47 -14 86 -30 106 -45 105 -31 -1 19 -78 36
-92 46 -89 63 4 29 47 40 121 34 l57 -6 0 775 c0 426 -3 775 -7 775 -12 0
-118 -63 -157 -93 -21 -17 -51 -48 -66 -69 l-28 -38 -18 52 c-17 47 -85 152
-204 315 l-45 62 -97 0 -98 1 0 -87 0 -88 -28 41 c-15 22 -44 62 -66 87 l-38
47 -594 0 -594 0 6 -27z m753 -1012 c27 -38 39 -39 47 -3 16 76 20 79 27 22 8
-69 55 -164 111 -227 l43 -48 -101 3 c-84 3 -111 0 -156 -17 -29 -11 -56 -18
-59 -16 -2 3 5 15 16 28 11 12 32 41 47 64 25 42 26 43 10 83 -44 111 -146
103 -194 -14 -13 -31 -27 -56 -32 -56 -11 0 -11 3 17 95 l25 82 83 44 82 44 6
-26 c3 -15 16 -41 28 -58z m711 -47 c94 -57 135 -96 166 -156 33 -65 30 -78
-8 -42 -45 42 -127 91 -164 99 -41 8 -90 -12 -141 -59 l-40 -36 -9 106 c-9
101 -8 105 11 109 11 2 38 8 60 13 22 6 42 10 45 11 3 1 39 -20 80 -45z m-283
-184 l71 -75 -9 -50 c-5 -27 -17 -56 -26 -63 -19 -14 -22 -9 45 -95 50 -64 82
-147 82 -211 0 -41 -3 -47 -32 -63 -56 -29 -127 -22 -288 29 -80 26 -164 49
-188 53 -31 5 -46 13 -52 28 -7 20 -9 20 -15 5 -6 -16 -24 -18 -164 -18 -86 0
-166 3 -178 6 -25 7 -45 51 -62 136 -11 51 -10 61 9 106 12 28 31 59 43 70 43
40 227 101 227 76 0 -4 -18 -26 -40 -50 -34 -37 -40 -50 -40 -86 0 -24 9 -61
19 -83 20 -45 80 -103 114 -109 51 -9 196 -26 228 -26 83 0 172 49 220 120 39
58 38 103 -3 165 -28 42 -33 60 -38 132 -3 46 -3 82 0 81 3 -2 37 -37 77 -78z
m-156 -63 c38 -16 109 -78 109 -96 0 -6 -12 -11 -28 -11 -37 0 -66 -22 -86
-64 -21 -44 -21 -94 0 -117 16 -17 15 -19 -7 -28 -51 -19 -127 -21 -227 -7
-57 8 -109 20 -116 26 -9 6 -15 43 -18 97 -4 73 -8 89 -26 104 -29 23 -28 30
14 58 71 49 129 62 245 57 59 -2 121 -11 140 -19z m-615 -64 c-36 -24 -76
-103 -76 -150 0 -35 17 -96 40 -148 16 -35 17 -51 8 -125 -7 -59 -7 -93 1
-112 13 -35 29 -36 37 -3 8 32 15 32 42 -4 49 -66 231 -141 388 -160 125 -15
181 -4 280 54 l31 19 33 -27 c45 -38 88 -59 108 -53 15 5 17 -1 14 -49 -2 -30
-7 -55 -11 -55 -60 0 -184 26 -220 46 -27 15 -48 21 -54 15 -10 -10 -5 -96 7
-122 11 -26 -101 -43 -233 -36 -108 5 -182 22 -227 52 l-26 17 32 31 c38 37
65 75 58 82 -3 3 -18 -1 -34 -9 -30 -15 -57 -19 -110 -17 -28 1 -35 7 -58 57
-15 32 -65 100 -112 153 -83 95 -160 222 -165 271 -5 59 0 78 21 73 25 -7 26
11 1 23 -15 7 -17 14 -10 33 9 23 18 24 62 6 9 -4 17 -3 17 3 0 5 -13 15 -30
22 -29 12 -29 13 -14 41 17 35 27 36 66 8 16 -12 32 -18 36 -15 3 4 2 10 -4
14 -6 4 -23 17 -39 30 -27 21 -27 24 -12 39 15 15 17 15 23 -1 6 -17 53 -46
74 -46 5 0 10 14 10 31 0 17 5 39 10 49 10 18 12 18 39 2 l29 -16 -32 -23z
m214 -81 c5 -20 10 -55 10 -77 l0 -40 -20 25 c-31 40 -40 154 -10 135 5 -3 14
-22 20 -43z m504 -4 c-1 -10 2 -15 7 -12 12 7 11 -13 -2 -39 -32 -62 -92 -97
-105 -62 -10 26 6 82 31 109 29 31 71 33 69 4z m331 -64 l80 -29 -65 -6 c-51
-5 -69 -4 -82 9 -17 14 -18 13 -18 -8 0 -20 -4 -17 -30 18 -16 23 -30 45 -30
48 0 11 63 -3 145 -32z m100 -75 c-47 -22 -73 -23 -112 -7 l-28 11 35 7 c19 4
60 8 90 8 l55 0 -40 -19z m-170 1 c3 -5 1 -10 -4 -10 -6 0 -11 5 -11 10 0 6 2
10 4 10 3 0 8 -4 11 -10z m-1555 -26 c37 -15 54 -34 30 -34 -5 0 -20 -16 -34
-36 l-25 -37 -30 49 c-17 26 -31 54 -31 61 0 18 41 16 90 -3z m1604 -56 c-4
-6 -14 -1 -25 13 -23 31 -11 49 13 20 10 -13 15 -28 12 -33z m-1400 21 c22
-18 26 -28 26 -77 1 -66 18 -119 53 -165 l25 -32 -55 -48 c-30 -26 -60 -47
-67 -47 -6 0 -32 21 -56 46 -25 25 -63 56 -86 70 -44 26 -64 58 -64 105 0 35
24 95 48 123 42 47 131 60 176 25z m1392 -66 c-10 -10 -19 5 -10 18 6 11 8 11
12 0 2 -7 1 -15 -2 -18z m-987 -3 c3 0 6 -19 6 -42 -1 -46 -34 -148 -47 -148
-10 0 -10 55 -2 139 6 48 10 61 21 57 8 -4 18 -6 22 -6z m287 -5 c12 -9 43
-14 85 -15 49 0 101 -11 210 -46 123 -39 154 -45 212 -42 l68 3 -8 -45 c-8
-56 -8 -62 1 -132 7 -52 6 -58 -11 -58 -26 0 -113 69 -145 115 -16 23 -27 54
-28 73 0 20 -4 31 -10 27 -5 -3 -10 -16 -10 -27 0 -24 -37 -68 -57 -68 -7 0
-20 11 -29 25 -15 23 -22 25 -93 24 -56 -1 -68 -3 -46 -9 17 -4 48 -8 69 -9
28 -1 48 -9 67 -27 l28 -27 37 22 c29 18 39 19 45 9 14 -21 11 -24 -43 -40
-96 -30 -169 -40 -226 -33 -71 9 -172 40 -237 72 -56 29 -129 83 -121 91 3 2
-1 14 -9 26 -8 11 -15 37 -15 58 0 37 1 38 35 38 21 0 35 -5 35 -12 0 -10 2
-10 8 -1 14 23 160 29 188 8z m802 0 c3 -3 -11 -21 -31 -40 -31 -30 -40 -34
-57 -25 -25 13 -25 14 2 51 19 26 28 30 52 25 16 -4 32 -8 34 -11z m-90 -77
c8 -8 4 -20 -18 -48 -31 -39 -90 -156 -90 -177 0 -7 -4 -13 -9 -13 -5 0 -13
29 -16 65 l-7 64 53 60 c56 63 67 69 87 49z m-108 -23 c-7 -9 -15 -13 -17 -11
-7 7 7 26 19 26 6 0 6 -6 -2 -15z m-1752 -48 l42 -23 -25 -34 c-14 -19 -25
-42 -25 -53 0 -10 -5 -15 -10 -12 -16 10 -70 108 -70 128 0 24 35 21 88 -6z
m267 -33 c21 -8 64 -41 97 -71 61 -59 70 -84 45 -132 -11 -21 -19 -24 -83 -25
-56 -1 -81 -7 -124 -29 -62 -32 -94 -30 -136 11 -63 63 -72 147 -21 213 18 24
44 47 57 51 35 10 120 1 165 -18z m342 -66 c43 -44 53 -76 53 -162 0 -52 -4
-77 -15 -86 -17 -14 -88 -25 -111 -16 -14 5 -13 10 9 40 15 18 23 36 20 39 -3
4 -32 -26 -65 -66 -32 -40 -64 -72 -71 -72 -30 0 7 122 57 188 33 43 33 57 1
27 -32 -30 -31 -22 1 42 25 50 65 98 82 98 4 0 22 -15 39 -32z m1577 -69 c29
-23 66 -88 66 -116 0 -15 -4 -14 -20 7 -25 32 -25 20 -1 -26 21 -39 38 -135
26 -154 -4 -7 -28 8 -65 40 -66 57 -98 117 -79 152 9 16 8 19 -3 16 -15 -5
-22 -49 -14 -83 3 -13 18 -37 32 -55 15 -17 25 -32 23 -34 -2 -1 -24 -10 -49
-19 -57 -21 -100 -11 -147 35 -40 39 -41 52 -4 109 37 58 70 87 134 120 66 33
69 33 101 8z m-1757 -91 c-3 -7 -5 -2 -5 12 0 14 2 19 5 13 2 -7 2 -19 0 -25z
m-40 -24 c29 -6 29 -6 20 -53 -11 -53 -3 -101 16 -101 8 0 24 11 37 25 29 31
38 31 80 0 73 -54 62 -74 -40 -76 l-65 -1 40 -12 40 -12 -26 -17 c-41 -27 -87
-37 -175 -37 -66 0 -86 4 -107 20 -31 24 -77 114 -77 150 0 71 147 136 257
114z m1903 -95 c0 -5 -4 -9 -10 -9 -5 0 -10 7 -10 16 0 8 5 12 10 9 6 -3 10
-10 10 -16z m-1227 -31 c79 -27 283 -31 359 -6 l46 16 33 -34 c18 -19 48 -40
66 -46 56 -20 62 -17 -182 -98 -126 -41 -193 -69 -168 -70 7 0 76 22 155 50
79 27 146 50 150 50 4 0 -12 -19 -35 -43 -31 -32 -88 -66 -217 -130 -96 -48
-184 -88 -195 -89 -19 -3 -20 4 -26 137 -6 134 -26 242 -51 273 -14 16 -7 15
65 -10z m-105 -361 c48 -49 52 -62 18 -71 -13 -3 -31 -9 -39 -12 -26 -10 -49
37 -41 85 4 22 10 41 13 41 4 0 26 -19 49 -43z"/>
<path d="M1732 1385 c0 -16 2 -22 5 -12 2 9 2 23 0 30 -3 6 -5 -1 -5 -18z"/>
<path d="M1500 1146 c0 -2 7 -7 16 -10 8 -3 12 -2 9 4 -6 10 -25 14 -25 6z"/>
<path d="M2593 2963 c-11 -37 -10 -40 37 -103 26 -36 65 -92 85 -125 21 -33
39 -61 41 -63 1 -2 26 16 56 40 29 24 83 59 120 78 l68 35 0 88 0 87 -198 0
-197 0 -12 -37z"/>
<path d="M1 2190 l0 -155 42 -26 c23 -14 99 -63 169 -107 71 -45 128 -79 128
-76 0 3 -17 26 -38 52 -57 69 -236 343 -280 427 l-21 40 0 -155z"/>
<path d="M0 1457 l0 -142 77 -22 c42 -13 79 -21 81 -18 3 2 -16 32 -42 66 -48
65 -55 86 -34 107 18 18 40 15 100 -13 29 -14 69 -25 89 -25 40 0 99 18 99 30
0 7 -348 160 -364 160 -3 0 -6 -64 -6 -143z"/>
<path d="M0 560 c0 -192 1 -350 3 -350 1 0 81 20 177 45 137 35 179 49 193 67
37 45 84 94 140 144 l57 51 -12 52 c-9 41 -9 65 1 117 13 61 12 66 -7 87 -11
12 -27 36 -35 53 -14 27 -24 33 -74 43 -44 8 -387 41 -435 41 -5 0 -8 -157 -8
-350z"/>
</g>
</svg>
