<?xml version="1.0" standalone="no"?>
<!DOCTYPE svg PUBLIC "-//W3C//DTD SVG 1.1//EN" "http://www.w3.org/Graphics/SVG/1.1/DTD/svg11.dtd" >
<svg xmlns="http://www.w3.org/2000/svg" xmlns:xlink="http://www.w3.org/1999/xlink" version="1.1">
<metadata></metadata>
<defs>
<font id="made_tommy_softbold" horiz-adv-x="1288" >
<font-face units-per-em="2048" ascent="1638" descent="-410" />
<missing-glyph horiz-adv-x="532" />
<glyph horiz-adv-x="0" />
<glyph horiz-adv-x="682" />
<glyph unicode=" "  horiz-adv-x="532" />
<glyph unicode="&#x09;" horiz-adv-x="532" />
<glyph unicode="&#xa0;" horiz-adv-x="532" />
<glyph unicode="!" horiz-adv-x="612" d="M123 158q0 76 53.5 130t130.5 54q75 0 128.5 -54t53.5 -130q0 -75 -53.5 -129t-128.5 -54q-76 0 -130 54t-54 129zM127 1358q-2 31 19.5 53.5t52.5 22.5h215q31 0 52 -22.5t19 -53.5l-39 -770q-1 -29 -22 -49.5t-49 -20.5h-135q-29 0 -51 20.5t-23 49.5z" />
<glyph unicode="&#x22;" horiz-adv-x="858" d="M125 1014v346q0 31 20.5 52.5t51.5 21.5h92q29 0 50 -21.5t21 -52.5v-346q0 -31 -21 -52.5t-50 -21.5h-92q-31 0 -51.5 21.5t-20.5 52.5zM498 1014v346q0 31 21 52.5t52 21.5h91q31 0 52 -21.5t21 -52.5v-346q0 -31 -21 -52.5t-52 -21.5h-91q-31 0 -52 21.5t-21 52.5z " />
<glyph unicode="#" horiz-adv-x="1312" d="M94 489l12 74q5 27 25 44.5t47 17.5h111l33 188h-93q-32 0 -53.5 25t-17.5 59l12 72q5 28 24.5 45.5t47.5 17.5h114l41 250q4 26 25 43.5t47 17.5h115q26 0 42 -19t13 -44l-41 -248h221l41 250q4 26 25 43.5t47 17.5h115q26 0 42 -19t11 -44l-39 -248h86q32 0 54.5 -26 t17.5 -58l-13 -74q-3 -26 -23 -43.5t-48 -17.5h-111l-31 -188h90q33 0 55 -25.5t17 -58.5l-12 -74q-3 -26 -23.5 -43.5t-48.5 -17.5h-115l-41 -254q-4 -26 -24.5 -43t-46.5 -17h-115q-26 0 -42 19t-13 45l43 250h-221l-43 -254q-3 -26 -23.5 -43t-48.5 -17h-115 q-25 0 -41 19t-12 45l41 250h-88q-33 0 -54.5 25t-17.5 58zM530 625h222l30 188h-221z" />
<glyph unicode="$" horiz-adv-x="1220" d="M66 266q-12 29 2 58.5t45 40.5l186 57q25 8 49 -1t37 -32q29 -51 86.5 -84t142.5 -33q94 0 151.5 37t57.5 105q0 23 -7 41t-25 32t-34.5 24t-49 20t-54 15.5t-65 15.5t-66.5 16q-217 55 -317.5 159.5t-100.5 282.5q0 182 122 297t319 137v170q0 15 10.5 25t24.5 10h92 q15 0 26 -10t11 -25v-170q139 -15 246 -86t159 -188q13 -31 -2 -61t-47 -38l-186 -47q-54 -10 -80 33q-52 92 -183 92q-77 0 -124.5 -38t-47.5 -99q0 -23 9 -43t28.5 -35t38.5 -26.5t50 -21.5t51.5 -16t55.5 -15t50 -13q176 -49 274 -106.5t138.5 -133.5t40.5 -192 q0 -166 -126.5 -291t-344.5 -149v-170q0 -14 -11 -24.5t-26 -10.5h-92q-14 0 -24.5 10.5t-10.5 24.5v167q-167 13 -294.5 84.5t-184.5 204.5z" />
<glyph unicode="%" horiz-adv-x="1800" d="M84 1081q0 149 105.5 255t254.5 106t255 -106t106 -255t-106 -254.5t-255 -105.5t-254.5 105.5t-105.5 254.5zM303 1081q0 -59 41.5 -100t99.5 -41q59 0 100.5 41.5t41.5 99.5q0 59 -42 100.5t-100 41.5t-99.5 -41.5t-41.5 -100.5zM364 19q-10 19 1 38l888 1344 q20 33 60 33h94q22 0 32.5 -19.5t-1.5 -38.5l-889 -1343q-20 -33 -60 -33h-94q-21 0 -31 19zM997 352q0 149 106 255t255 106t254.5 -106t105.5 -255t-105.5 -254.5t-254.5 -105.5t-255 105.5t-106 254.5zM1217 352q0 -58 41.5 -99.5t99.5 -41.5q60 0 101.5 41t41.5 100 t-41.5 100.5t-101.5 41.5q-58 0 -99.5 -41.5t-41.5 -100.5z" />
<glyph unicode="&#x26;" horiz-adv-x="1615" d="M61 383q0 126 73.5 225t193.5 160q-113 160 -113 297q0 180 122 287.5t335 107.5q209 0 328.5 -100.5t119.5 -253.5q0 -137 -93.5 -237.5t-248.5 -141.5q24 -22 114.5 -101t135.5 -122q29 68 37 108q8 28 32 44t52 12l133 -25q31 -6 47 -31.5t10 -56.5q-30 -137 -96 -248 q123 -111 242 -211q28 -25 14.5 -60.5t-51.5 -35.5h-231q-46 0 -82 31l-84 71q-183 -127 -445 -127q-151 0 -273 46t-197 140t-75 222zM397 418q0 -84 67.5 -134.5t174.5 -50.5q106 0 195 50q-227 179 -345 297q-92 -57 -92 -162zM539 1065q0 -70 77 -170q71 9 127 55 t56 121q0 58 -34 95.5t-93 37.5q-62 0 -97.5 -38t-35.5 -101z" />
<glyph unicode="'" horiz-adv-x="483" d="M123 1014v346q0 31 21.5 52.5t52.5 21.5h90q31 0 52 -21.5t21 -52.5v-346q0 -31 -21 -52.5t-52 -21.5h-90q-31 0 -52.5 21.5t-21.5 52.5z" />
<glyph unicode="(" horiz-adv-x="737" d="M123 717q0 258 74 487t178 393q17 28 48.5 34t57.5 -13l101 -76q23 -17 28.5 -43t-8.5 -51q-72 -135 -120 -324.5t-48 -406.5t48 -406.5t120 -324.5q14 -25 8.5 -51t-28.5 -41l-101 -78q-26 -19 -57.5 -13.5t-48.5 33.5q-104 163 -178 393t-74 488z" />
<glyph unicode=")" horiz-adv-x="737" d="M128 -65q-6 26 7 51q72 136 121 325t49 406t-49 406t-121 325q-13 25 -7 50.5t28 43.5l102 76q25 19 56 13t48 -34q104 -164 178 -393t74 -487t-74 -488t-178 -393q-17 -28 -48 -33.5t-56 13.5l-102 78q-22 15 -28 41z" />
<glyph unicode="*" horiz-adv-x="935" d="M100 1143l31 96q7 23 29.5 32.5t44.5 0.5l182 -78l-18 180q-2 25 14 42.5t41 17.5h94q25 0 41.5 -17.5t13.5 -42.5l-18 -192l176 78q23 9 45.5 -1.5t28.5 -33.5l31 -90q8 -24 -4.5 -45t-36.5 -25l-179 -41l125 -143q17 -17 14.5 -41.5t-22.5 -38.5l-80 -60 q-20 -14 -44 -8.5t-36 27.5l-100 170l-102 -170q-12 -22 -35 -27.5t-43 8.5l-82 60q-19 13 -21 38t13 42l131 149l-193 43q-24 4 -36.5 25t-4.5 45z" />
<glyph unicode="+" horiz-adv-x="1048" d="M123 537v147q0 29 21.5 50.5t50.5 21.5h182v182q0 31 21.5 52.5t52.5 21.5h145q31 0 52.5 -21.5t21.5 -52.5v-182h182q31 0 52.5 -21.5t21.5 -50.5v-147q0 -29 -21.5 -50.5t-52.5 -21.5h-182v-182q0 -31 -21.5 -52.5t-52.5 -21.5h-145q-31 0 -52.5 21.5t-21.5 52.5v182 h-182q-29 0 -50.5 21.5t-21.5 50.5z" />
<glyph unicode="," horiz-adv-x="546" d="M47 -117q-8 28 4 54l135 284q13 29 44 38.5t59 -5.5l108 -64q28 -15 35 -45.5t-10 -56.5l-172 -264q-15 -25 -43 -32t-53 7l-74 41q-25 15 -33 43z" />
<glyph unicode="-" horiz-adv-x="903" d="M123 537v147q0 29 21.5 50.5t52.5 21.5h510q31 0 52 -21t21 -51v-147q0 -29 -21 -50.5t-52 -21.5h-510q-31 0 -52.5 21.5t-21.5 50.5z" />
<glyph unicode="." horiz-adv-x="532" d="M82 158q0 75 54 129.5t130 54.5q75 0 130 -54.5t55 -129.5q0 -76 -55 -130.5t-130 -54.5q-76 0 -130 54t-54 131z" />
<glyph unicode="/" horiz-adv-x="1048" d="M106 -125l543 1679q12 35 40.5 55.5t64.5 20.5h137q28 0 44.5 -21.5t8.5 -47.5l-545 -1682q-10 -34 -39.5 -55t-64.5 -21h-137q-28 0 -44.5 22.5t-7.5 49.5z" />
<glyph unicode="0" horiz-adv-x="1370" d="M72 717q0 122 22 230.5t70.5 202.5t119 162t173 107t227.5 39q126 0 228.5 -39t173.5 -107t119.5 -162t70.5 -202.5t22 -230.5t-22 -230.5t-70.5 -203.5t-119 -163.5t-173.5 -107.5t-229 -39q-155 0 -275 59.5t-192 163.5t-108.5 235.5t-36.5 285.5zM422 717 q0 -83 14 -153t44 -128.5t82 -91.5t122 -33t123 33t82.5 91.5t44 128.5t14.5 153q0 82 -14.5 151.5t-44 127.5t-82.5 91t-123 33t-122 -33t-82 -90.5t-44 -127.5t-14 -152z" />
<glyph unicode="1" horiz-adv-x="950" d="M66.5 1121.5q5.5 28.5 29.5 43.5l371 250q28 19 61 19h154q31 0 52.5 -21.5t21.5 -52.5v-1286q0 -31 -21.5 -52.5t-52.5 -21.5h-205q-31 0 -52.5 21.5t-21.5 52.5v962l-155 -104q-26 -17 -57 -10.5t-46 32.5l-69 113q-15 26 -9.5 54.5z" />
<glyph unicode="2" horiz-adv-x="1187" d="M98 74v155q0 45 33 78q178 174 354 371q123 134 154 174q66 86 66 141t-35.5 94t-102.5 39q-108 0 -143 -100q-6 -20 -24 -30.5t-40 -6.5l-206 49q-32 6 -48.5 35t-5.5 60q51 161 181.5 244t306.5 83q219 0 347 -121t128 -327q0 -62 -19 -122t-50 -115.5t-92.5 -129.5 t-124.5 -140.5t-169 -172.5h404q31 0 52 -21.5t21 -52.5v-184q0 -31 -21 -52.5t-52 -21.5h-840q-31 0 -52.5 21.5t-21.5 52.5z" />
<glyph unicode="3" horiz-adv-x="1196" d="M72 270q-12 31 4.5 60t48.5 37l211 49q20 3 37 -5.5t24 -25.5q51 -100 193 -100q92 0 136 46.5t44 121.5q0 77 -56.5 112t-142.5 35h-84q-22 0 -37.5 16t-15.5 39v160q0 23 15.5 39t37.5 16h84q181 0 181 138q0 70 -44 107.5t-118 37.5q-54 0 -94 -24t-60 -62 q-19 -37 -61 -27l-197 43q-34 7 -49.5 39t-1.5 64q59 125 183 199.5t280 74.5q238 0 370 -114.5t132 -298.5q0 -97 -47.5 -176t-137.5 -128q217 -97 217 -337q0 -194 -144.5 -312.5t-389.5 -118.5q-181 0 -323 79.5t-195 215.5z" />
<glyph unicode="4" horiz-adv-x="1316" d="M82 322v161q0 37 18 72l478 823q13 26 38.5 41t55.5 15h340q29 0 50 -21.5t21 -52.5v-801h78q31 0 52.5 -21.5t21.5 -52.5v-163q0 -31 -21.5 -52.5t-52.5 -21.5h-78v-174q0 -31 -21 -52.5t-50 -21.5h-205q-31 0 -52.5 21.5t-21.5 52.5v174h-577q-31 0 -52.5 21.5 t-21.5 52.5zM446 559h287v498z" />
<glyph unicode="5" horiz-adv-x="1196" d="M96 272q-12 31 3.5 61.5t47.5 37.5l201 45q19 5 37 -4t25 -27q49 -100 180 -100q91 0 139.5 54.5t48.5 141.5q0 94 -53.5 138.5t-138.5 44.5q-73 0 -150 -43q-32 -20 -78 -13l-159 37q-28 6 -44 29t-12 51l74 645q3 28 23.5 46t48.5 18h653q31 0 52.5 -21.5t21.5 -52.5 v-184q0 -29 -21.5 -50.5t-52.5 -21.5h-461l-28 -240q105 62 219 62q214 0 333 -124t119 -323q0 -100 -36.5 -191t-102.5 -160.5t-166 -111t-219 -41.5q-177 0 -312 82t-192 215z" />
<glyph unicode="6" horiz-adv-x="1224" d="M72 479q0 65 14 127t41.5 117t46 85.5t48.5 74.5q8 11 11 16l324 479q37 56 105 56h202q33 0 48.5 -30t-3.5 -56l-278 -383q236 -6 379 -137t143 -349q0 -221 -149 -362.5t-392 -141.5q-239 0 -389.5 140t-150.5 364zM420 479q0 -84 53.5 -139t138.5 -55q86 0 140.5 55 t54.5 139t-53.5 138.5t-141.5 54.5q-83 0 -137.5 -55.5t-54.5 -137.5z" />
<glyph unicode="7" horiz-adv-x="1114" d="M82 1176v184q0 31 21.5 52.5t52.5 21.5h802q31 0 52.5 -21.5t21.5 -52.5v-197q0 -32 -12 -59l-457 -1059q-20 -45 -67 -45h-222q-29 0 -45.5 25t-5.5 51l445 1028h-512q-31 0 -52.5 21.5t-21.5 50.5z" />
<glyph unicode="8" horiz-adv-x="1253" d="M72 442q0 224 209 328q-154 98 -154 295q0 178 131 285.5t369 107.5t368.5 -107.5t130.5 -285.5q0 -198 -153 -295q209 -104 209 -328q0 -218 -149.5 -343.5t-405.5 -125.5q-257 0 -406 125.5t-149 343.5zM432 459q0 -77 54 -125.5t141 -48.5q86 0 140 48.5t54 125.5 q0 81 -54 128.5t-140 47.5t-140.5 -47.5t-54.5 -128.5zM451 1018q0 -76 50 -121t126 -45t126 45t50 121t-50.5 122t-125.5 46t-125.5 -46t-50.5 -122z" />
<glyph unicode="9" horiz-adv-x="1224" d="M72 954q0 221 147.5 363.5t390.5 142.5q241 0 391 -140.5t150 -365.5q0 -66 -14 -127.5t-41.5 -116.5t-45.5 -85.5t-48 -73.5q-8 -11 -11 -16l-323 -480q-39 -55 -107 -55h-201q-34 0 -49.5 30t4.5 56l279 383q-235 6 -378.5 137.5t-143.5 347.5zM418 954 q0 -84 52.5 -138t139.5 -54q84 0 139.5 55t55.5 137q0 84 -54 139.5t-141 55.5q-85 0 -138.5 -55.5t-53.5 -139.5z" />
<glyph unicode=":" horiz-adv-x="573" d="M102 158q0 75 54.5 129.5t130.5 54.5q75 0 129.5 -54.5t54.5 -129.5q0 -76 -54.5 -130.5t-129.5 -54.5q-77 0 -131 54.5t-54 130.5zM102 879q0 76 54 130t131 54q75 0 129.5 -54t54.5 -130q0 -75 -54.5 -129t-129.5 -54q-76 0 -130.5 54t-54.5 129z" />
<glyph unicode=";" horiz-adv-x="622" d="M66 -117q-8 28 4 54l135 284q13 29 43.5 38.5t58.5 -5.5l111 -64q26 -15 33.5 -45.5t-9.5 -56.5l-172 -264q-17 -25 -45 -32t-53 7l-72 41q-26 15 -34 43zM152 881q0 75 54.5 128.5t129.5 53.5q76 0 130 -53.5t54 -128.5q0 -77 -54 -131t-130 -54q-75 0 -129.5 54.5 t-54.5 130.5z" />
<glyph unicode="&#x3c;" horiz-adv-x="1011" d="M123 449v231q0 52 45 68l645 258q28 10 52 -6.5t24 -45.5v-141q0 -23 -13.5 -43t-35.5 -27l-504 -180l504 -180q22 -8 35.5 -26.5t13.5 -41.5v-141q0 -29 -24 -45.5t-52 -5.5l-645 258q-45 16 -45 68z" />
<glyph unicode="=" horiz-adv-x="1013" d="M123 336v110q0 31 21.5 51.5t52.5 20.5h618q31 0 52.5 -20.5t21.5 -51.5v-110q0 -29 -21.5 -50.5t-52.5 -21.5h-618q-31 0 -52.5 21.5t-21.5 50.5zM123 774v109q0 31 21.5 52t52.5 21h618q31 0 52.5 -21t21.5 -52v-109q0 -31 -21.5 -52.5t-52.5 -21.5h-618 q-31 0 -52.5 21.5t-21.5 52.5z" />
<glyph unicode="&#x3e;" horiz-adv-x="1013" d="M125 174v141q0 52 49 68l504 180l-504 180q-23 7 -36 26.5t-13 43.5v141q0 29 24 45.5t52 6.5l645 -258q20 -8 32.5 -26.5t12.5 -41.5v-231q0 -23 -12.5 -41.5t-32.5 -26.5l-645 -258q-28 -11 -52 5.5t-24 45.5z" />
<glyph unicode="?" horiz-adv-x="1056" d="M82 1167q51 147 172.5 220t286.5 73q110 0 199 -34t143 -90.5t83 -126t29 -144.5q0 -74 -24.5 -134.5t-62 -101.5t-76 -77t-73.5 -79.5t-48 -90.5q-7 -29 -31.5 -46.5t-54.5 -17.5h-164q-34 0 -55.5 27t-14.5 61q12 61 43 116.5t66 94.5t68 74.5t55 71.5t22 71 q0 55 -33.5 87t-95.5 32q-87 0 -123 -82q-10 -25 -34.5 -37t-49.5 -6l-176 43q-30 7 -45 36t-6 60zM358 158q0 76 54 130t131 54q75 0 128.5 -54t53.5 -130q0 -75 -53.5 -129t-128.5 -54q-76 0 -130.5 54t-54.5 129z" />
<glyph unicode="@" horiz-adv-x="1875" d="M102 684q0 236 104.5 419.5t298 286.5t445.5 103q155 0 289.5 -40t231 -109.5t166 -162.5t103.5 -200t34 -221q0 -119 -32.5 -214.5t-85 -152.5t-114 -87t-125.5 -30q-174 0 -252 123q-94 -112 -256 -112q-121 0 -208.5 55.5t-129 145t-41.5 200.5q0 77 24 148.5 t68 128.5t111.5 91t147.5 34q142 0 235 -111v37q0 23 16 39t39 16h80q31 0 52.5 -21.5t21.5 -52.5v-370q0 -150 96 -150q69 0 110.5 79.5t41.5 203.5q0 117 -41.5 217.5t-119 174.5t-196.5 116.5t-266 42.5q-299 0 -473 -170.5t-174 -456.5q0 -116 33.5 -216.5t92 -173 t135.5 -125t165 -78t180 -25.5q186 0 322 84q22 15 48.5 11t43.5 -26l31 -35q22 -25 16.5 -57t-33.5 -51q-172 -109 -428 -109q-177 0 -327.5 60t-256 165t-164.5 254t-59 322zM752 688q0 -82 49.5 -130t128.5 -48q84 0 131 50.5t47 127.5q0 81 -50 129.5t-128 48.5 q-81 0 -129.5 -50t-48.5 -128z" />
<glyph unicode="A" horiz-adv-x="1486" d="M47 74l469 1300q9 26 33 43t53 17h285q29 0 53 -17t33 -43l467 -1300q10 -28 -6 -51t-45 -23h-222q-31 0 -55 17.5t-33 45.5l-63 205h-543l-63 -205q-9 -28 -33 -45.5t-55 -17.5h-224q-28 0 -44 23t-7 51zM557 532h375l-189 598z" />
<glyph unicode="B" d="M123 74v1286q0 31 20.5 52.5t51.5 21.5h448q255 0 388.5 -104.5t133.5 -289.5q0 -190 -151 -280v-6q211 -95 211 -318q0 -201 -130 -318.5t-399 -117.5h-501q-31 0 -51.5 21.5t-20.5 52.5zM473 276h207q93 0 140.5 48.5t47.5 126.5q0 76 -48 116.5t-140 40.5h-207v-332z M473 848h152q93 0 140.5 41.5t47.5 114.5q0 76 -48 114.5t-140 38.5h-152v-309z" />
<glyph unicode="C" horiz-adv-x="1411" d="M72 717q0 211 92.5 380.5t259 266t375.5 96.5q155 0 289 -55.5t233 -155.5q22 -22 22 -50q0 -5 -1 -9q-4 -34 -33 -53l-172 -115q-21 -13 -41 -13q-25 0 -49 21q-95 92 -248 92q-90 0 -163.5 -34.5t-119 -92t-70 -129t-24.5 -149.5t24.5 -149.5t70 -129.5t119 -92.5 t163.5 -34.5q149 0 248 92q25 22 51 22q20 0 39 -13l172 -115q29 -19 33 -53q1 -5 1 -9q0 -28 -22 -51q-98 -100 -232 -154.5t-290 -54.5t-292 56.5t-231 155t-149.5 236t-54.5 294.5z" />
<glyph unicode="D" horiz-adv-x="1458" d="M123 74v1286q0 31 21.5 52.5t50.5 21.5h430q355 0 557 -193t202 -524t-202 -524t-557 -193h-430q-29 0 -50.5 21.5t-21.5 52.5zM473 332h152q182 0 295.5 100.5t113.5 284.5q0 185 -114 286t-295 101h-152v-772z" />
<glyph unicode="E" horiz-adv-x="1105" d="M123 74v1286q0 31 21.5 52.5t52.5 21.5h735q31 0 52.5 -21.5t21.5 -52.5v-184q0 -29 -21.5 -50.5t-52.5 -21.5h-459v-223h393q31 0 52.5 -21.5t21.5 -52.5v-166q0 -31 -21.5 -52.5t-52.5 -21.5h-393v-235h477q31 0 52.5 -21.5t21.5 -52.5v-184q0 -31 -21.5 -52.5 t-52.5 -21.5h-753q-31 0 -52.5 21.5t-21.5 52.5z" />
<glyph unicode="F" horiz-adv-x="1097" d="M125 74v1286q0 31 21.5 52.5t50.5 21.5h747q31 0 52.5 -21.5t21.5 -52.5v-184q0 -29 -21.5 -50.5t-52.5 -21.5h-469v-275h410q31 0 52 -21t21 -50v-187q0 -29 -21 -50t-52 -21h-410v-426q0 -31 -21.5 -52.5t-52.5 -21.5h-204q-29 0 -50.5 21.5t-21.5 52.5z" />
<glyph unicode="G" horiz-adv-x="1579" d="M72 717q0 211 93 380.5t260 266t376 96.5q155 0 289 -55.5t233 -155.5q21 -22 21 -50v-9q-4 -34 -33 -53l-172 -115q-22 -14 -46.5 -11.5t-43.5 19.5q-98 92 -248 92q-90 0 -163.5 -34.5t-119 -92t-70 -129t-24.5 -149.5t24.5 -149.5t70 -129.5t119 -92.5t163.5 -34.5 q139 0 226.5 65.5t125.5 174.5h-281q-29 0 -50 21.5t-21 52.5v131q0 31 21 52t50 21h533q29 0 50.5 -21.5t21.5 -51.5v-693q0 -26 -19 -44.5t-45 -18.5h-55q-22 0 -39 13.5t-23 33.5l-34 131q-163 -203 -461 -203q-156 0 -292 56.5t-232 155t-150.5 236t-54.5 294.5z" />
<glyph unicode="H" horiz-adv-x="1466" d="M123 74v1286q0 31 21.5 52.5t50.5 21.5h206q29 0 50.5 -21.5t21.5 -52.5v-471h520v471q0 31 21.5 52.5t52.5 21.5h205q31 0 52.5 -21.5t21.5 -52.5v-1286q0 -31 -21.5 -52.5t-52.5 -21.5h-205q-31 0 -52.5 21.5t-21.5 52.5v483h-520v-483q0 -31 -21.5 -52.5t-50.5 -21.5 h-206q-29 0 -50.5 21.5t-21.5 52.5z" />
<glyph unicode="I" horiz-adv-x="595" d="M123 74v1286q0 31 21.5 52.5t52.5 21.5h204q31 0 52.5 -21.5t21.5 -52.5v-1286q0 -31 -21.5 -52.5t-52.5 -21.5h-204q-31 0 -52.5 21.5t-21.5 52.5z" />
<glyph unicode="J" horiz-adv-x="1216" d="M41 340q-6 31 11 56.5t46 31.5l228 43q20 3 37.5 -8t23.5 -31q17 -53 61 -87t117 -34q52 0 89 18.5t55.5 50.5t26 64t7.5 68v848q0 31 21.5 52.5t52.5 21.5h205q29 0 50.5 -21.5t21.5 -52.5v-848q0 -260 -132 -398.5t-395 -138.5q-206 0 -348 100.5t-178 264.5z" />
<glyph unicode="K" horiz-adv-x="1357" d="M123 74v1286q0 31 21.5 52.5t52.5 21.5h204q31 0 52.5 -21.5t21.5 -52.5v-563l410 598q28 39 76 39h235q34 0 49.5 -29t-4.5 -57l-432 -607l467 -655q19 -26 3.5 -56t-48.5 -30h-254q-51 0 -76 39l-426 616v-581q0 -31 -21.5 -52.5t-52.5 -21.5h-204q-31 0 -52.5 21.5 t-21.5 52.5z" />
<glyph unicode="L" horiz-adv-x="1071" d="M123 74v1286q0 31 21.5 52.5t50.5 21.5h206q29 0 50.5 -21.5t21.5 -52.5v-1028h463q29 0 50.5 -21.5t21.5 -52.5v-184q0 -31 -21.5 -52.5t-50.5 -21.5h-741q-29 0 -50.5 21.5t-21.5 52.5z" />
<glyph unicode="M" horiz-adv-x="1824" d="M123 74v1286q0 31 21.5 52.5t52.5 21.5h233q61 0 94 -54l387 -637l389 637q33 54 95 54h235q29 0 50.5 -21.5t21.5 -52.5v-1286q0 -31 -21.5 -52.5t-50.5 -21.5h-207q-29 0 -50 21.5t-21 52.5v778l-353 -580q-21 -34 -63 -34h-47q-44 0 -62 34l-352 580v-778 q0 -31 -21.5 -52.5t-52.5 -21.5h-204q-31 0 -52.5 21.5t-21.5 52.5z" />
<glyph unicode="N" horiz-adv-x="1464" d="M123 74v1286q0 31 21.5 52.5t52.5 21.5h176q58 0 90 -50l526 -786v762q0 31 21.5 52.5t52.5 21.5h207q29 0 50 -21.5t21 -52.5v-1286q0 -31 -21 -52.5t-50 -21.5h-176q-62 0 -90 49l-529 787v-762q0 -31 -21.5 -52.5t-50.5 -21.5h-206q-31 0 -52.5 21.5t-21.5 52.5z" />
<glyph unicode="O" horiz-adv-x="1601" d="M72 717q0 210 93 379t260 265.5t376 96.5t376 -96.5t260 -265.5t93 -379q0 -158 -54.5 -296t-150.5 -236.5t-232 -155t-292 -56.5t-292 56.5t-232 155t-150.5 236.5t-54.5 296zM424 717q0 -78 24.5 -149.5t70 -129.5t119 -92.5t163.5 -34.5t163.5 34.5t119 92.5t70 129.5 t24.5 149.5t-24.5 149t-70 128.5t-119 91.5t-163.5 34t-163.5 -34t-119 -91.5t-70 -128.5t-24.5 -149z" />
<glyph unicode="P" d="M123 74v1286q0 31 21.5 52.5t52.5 21.5h460q264 0 416 -140t152 -374q0 -123 -44.5 -219t-123 -155t-180 -89.5t-220.5 -30.5h-184v-352q0 -31 -21.5 -52.5t-50.5 -21.5h-204q-31 0 -52.5 21.5t-21.5 52.5zM473 737h184q99 0 156 46t57 137q0 84 -56.5 134t-156.5 50 h-184v-367z" />
<glyph unicode="Q" horiz-adv-x="1601" d="M72 717q0 211 93 380.5t260 266t376 96.5t375.5 -96.5t259 -266t92.5 -380.5q0 -258 -137 -449l90 -90q15 -15 15 -38t-15 -40l-109 -106q-15 -15 -38 -15t-38 15l-94 94q-177 -113 -401 -113q-156 0 -292 56.5t-232 155t-150.5 236t-54.5 294.5zM424 717 q0 -78 24.5 -149.5t70 -129.5t119 -92.5t163.5 -34.5q79 0 151 29l-139 139q-15 17 -15 40t15 38l109 107q16 17 37.5 16.5t37.5 -16.5l140 -140q41 90 41 193q0 78 -24.5 149.5t-70 129t-119 92t-163.5 34.5t-163.5 -34.5t-119 -92t-70 -129t-24.5 -149.5z" />
<glyph unicode="R" horiz-adv-x="1329" d="M123 74v1286q0 31 21.5 52.5t52.5 21.5h477q266 0 408.5 -136t142.5 -360q0 -125 -58 -222t-163 -157l260 -477q15 -28 -0.5 -55t-46.5 -27h-226q-56 0 -82 51l-215 430q-3 0 -10 -1t-10 -1h-201v-405q0 -31 -21.5 -52.5t-50.5 -21.5h-204q-31 0 -52.5 21.5t-21.5 52.5z M473 774h201q85 0 140.5 39.5t55.5 124.5q0 78 -53.5 122t-142.5 44h-201v-330z" />
<glyph unicode="S" horiz-adv-x="1220" d="M68 266q-12 29 2 58.5t45 40.5l186 57q25 8 49 -1t37 -32q29 -51 86.5 -84t142.5 -33q94 0 151.5 37t57.5 105q0 23 -7 41t-25 32t-34.5 24t-49 20t-54 15.5t-65 15.5t-66.5 16q-217 55 -317.5 159.5t-100.5 282.5q0 135 70 236t189 152.5t268 51.5q165 0 294.5 -73 t188.5 -205q7 -15 7 -30q0 -16 -8 -32q-15 -32 -48 -39l-186 -47q-10 -2 -19 -2q-40 0 -61 35q-52 92 -183 92q-77 0 -124.5 -38t-47.5 -99q0 -23 9 -43t28.5 -35t38.5 -26.5t50 -21.5t51.5 -16t55.5 -15t50 -13q176 -49 274 -106.5t138.5 -133.5t40.5 -192q0 -88 -38 -168 t-107.5 -142t-177.5 -98.5t-238 -36.5q-124 0 -229.5 28t-193 95t-130.5 168z" />
<glyph unicode="T" horiz-adv-x="1144" d="M61 1176v184q0 31 21.5 52.5t52.5 21.5h875q31 0 52 -21.5t21 -52.5v-184q0 -30 -21.5 -51t-51.5 -21h-262v-1030q0 -31 -21.5 -52.5t-52.5 -21.5h-205q-29 0 -50.5 21.5t-21.5 52.5v1030h-262q-31 0 -52.5 21.5t-21.5 50.5z" />
<glyph unicode="U" horiz-adv-x="1443" d="M123 557v803q0 31 21.5 52.5t50.5 21.5h206q29 0 50.5 -21.5t21.5 -52.5v-766q0 -140 64.5 -211.5t183.5 -71.5q120 0 184 71t64 212v766q0 31 21 52.5t52 21.5h205q31 0 52.5 -21.5t21.5 -52.5v-803q0 -288 -156.5 -435t-443.5 -147q-286 0 -442 146.5t-156 435.5z" />
<glyph unicode="V" horiz-adv-x="1484" d="M45 1360q-9 28 7.5 51t45.5 23h221q30 0 55 -18t34 -46l335 -1067l334 1067q9 28 33.5 46t54.5 18h224q28 0 44 -23t7 -51l-469 -1299q-9 -28 -33 -44.5t-53 -16.5h-285q-29 0 -53 16.5t-33 44.5z" />
<glyph unicode="W" horiz-adv-x="2052" d="M41 1362q-7 28 9 50t44 22h223q31 0 56.5 -19.5t32.5 -48.5l231 -874l246 876q7 29 32 47.5t56 18.5h110q31 0 55 -18.5t33 -47.5l246 -876l232 874q8 30 32 49t56 19h221q28 0 44 -22t9 -50l-401 -1299q-9 -28 -33 -45.5t-53 -17.5h-187q-30 0 -54.5 19t-31.5 49 l-223 792l-223 -792q-9 -31 -33 -49.5t-55 -18.5h-185q-31 0 -55 17.5t-33 45.5z" />
<glyph unicode="X" horiz-adv-x="1386" d="M71 28q-16 28 1 56l409 653l-375 613q-17 28 -0.5 56t48.5 28h235q61 0 94 -54l209 -358l211 358q33 54 94 54h236q32 0 48 -28t-1 -56l-375 -613l410 -653q17 -28 1 -56t-48 -28h-236q-62 0 -92 51l-248 400l-246 -400q-13 -23 -38.5 -37t-53.5 -14h-235q-32 0 -48 28z " />
<glyph unicode="Y" horiz-adv-x="1425" d="M68 1352q-15 28 0.5 55t46.5 27h217q30 0 56.5 -16.5t39.5 -43.5l285 -549l284 549q13 28 39.5 44t57.5 16h217q31 0 46.5 -27t0.5 -55l-469 -811v-467q0 -31 -21.5 -52.5t-52.5 -21.5h-205q-31 0 -52 21.5t-21 52.5v467z" />
<glyph unicode="Z" horiz-adv-x="1208" d="M61 74v178q0 45 25 76l576 776h-510q-29 0 -50.5 21.5t-21.5 50.5v184q0 31 21.5 52.5t50.5 21.5h884q31 0 52.5 -21.5t21.5 -52.5v-178q0 -40 -25 -76l-575 -774h563q31 0 52.5 -21.5t21.5 -52.5v-184q0 -31 -21.5 -52.5t-52.5 -21.5h-938q-31 0 -52.5 21.5t-21.5 52.5z " />
<glyph unicode="[" horiz-adv-x="763" d="M123 -125v1684q0 30 21.5 50.5t52.5 20.5h393q30 0 51 -20.5t21 -50.5v-140q0 -31 -21 -52t-51 -21h-156v-1258h156q29 0 50.5 -21.5t21.5 -52.5v-139q0 -29 -21.5 -50.5t-50.5 -21.5h-393q-31 0 -52.5 21.5t-21.5 50.5z" />
<glyph unicode="\" horiz-adv-x="1048" d="M104 1561q-9 26 7.5 47.5t44.5 21.5h137q36 0 65 -20.5t39 -55.5l545 -1679q7 -28 -9 -50t-44 -22h-137q-35 0 -65 21t-40 55z" />
<glyph unicode="]" horiz-adv-x="763" d="M102 14q0 31 21.5 52.5t50.5 21.5h156v1258h-156q-30 0 -51 21t-21 52v140q0 30 21 50.5t51 20.5h393q31 0 52.5 -20.5t21.5 -50.5v-1684q0 -29 -21.5 -50.5t-52.5 -21.5h-393q-29 0 -50.5 21.5t-21.5 50.5v139z" />
<glyph unicode="^" horiz-adv-x="1077" d="M123 903l244 481q26 50 82 50h180q56 0 82 -50l243 -481q13 -28 -2.5 -54t-44.5 -26h-159q-28 0 -51 14.5t-33 39.5l-125 274l-125 -274q-10 -25 -33 -39.5t-51 -14.5h-158q-31 0 -47 26t-2 54z" />
<glyph unicode="_" horiz-adv-x="831" d="M41 -217q0 31 21.5 52.5t52.5 21.5h602q31 0 52.5 -21.5t21.5 -52.5v-109q0 -31 -21.5 -52t-52.5 -21h-602q-31 0 -52.5 21t-21.5 52v109z" />
<glyph unicode="`" horiz-adv-x="708" d="M161 1449q10 19 32 19h202q27 0 49.5 -14.5t32.5 -38.5l86 -182q8 -18 -2.5 -34.5t-30.5 -16.5h-159q-51 0 -76 39l-131 190q-13 19 -3 38z" />
<glyph unicode="a" d="M51 518q0 104 33 200.5t94 174t157.5 124t213.5 46.5q191 0 293 -127v47q0 23 16 39t39 16h205q31 0 52.5 -21t21.5 -52v-891q0 -31 -21.5 -52.5t-52.5 -21.5h-205q-23 0 -39 16t-16 39v47q-102 -127 -293 -127q-117 0 -213.5 46.5t-157.5 124t-94 173.5t-33 199z M387 518q0 -97 60 -159t161 -62q96 0 159.5 60.5t63.5 160.5q0 102 -63.5 162.5t-159.5 60.5q-101 0 -161 -62.5t-60 -160.5z" />
<glyph unicode="b" horiz-adv-x="1286" d="M113 74v1286q0 31 21 52.5t52 21.5h187q31 0 52 -21.5t21 -52.5v-424q99 127 293 127q117 0 213 -46.5t157.5 -124t94.5 -174.5t33 -200t-33 -199t-94.5 -173.5t-157.5 -124t-213 -46.5q-194 0 -293 127v-47q0 -23 -16 -39t-39 -16h-205q-31 0 -52 21.5t-21 52.5z M457 518q0 -101 62.5 -161t158.5 -60q102 0 162.5 62t60.5 159q0 99 -60.5 161t-162.5 62q-96 0 -158.5 -60.5t-62.5 -162.5z" />
<glyph unicode="c" horiz-adv-x="1101" d="M51 518q0 153 71 277.5t199 196t287 71.5q135 0 248.5 -52t190.5 -145q15 -20 11 -44.5t-26 -37.5l-196 -116q-15 -8 -29 -8q-21 0 -39 18q-63 63 -160 63q-98 0 -159.5 -64.5t-61.5 -158.5q0 -93 61.5 -157t159.5 -64q97 0 160 63q18 18 38 18q14 0 30 -9l196 -115 q22 -13 26 -38t-11 -44q-77 -93 -190.5 -145t-248.5 -52q-241 0 -399 155.5t-158 387.5z" />
<glyph unicode="d" horiz-adv-x="1286" d="M49 518q0 103 33 200t94.5 174.5t157.5 124t213 46.5q194 0 293 -127v424q0 31 21 52.5t52 21.5h187q31 0 52.5 -21.5t21.5 -52.5v-1286q0 -31 -21.5 -52.5t-52.5 -21.5h-205q-23 0 -39 16t-16 39v47q-99 -127 -293 -127q-117 0 -213 46.5t-157.5 124t-94.5 173.5 t-33 199zM385 518q0 -97 60.5 -159t162.5 -62q96 0 158.5 60t62.5 161q0 102 -62.5 162.5t-158.5 60.5q-102 0 -162.5 -62t-60.5 -161z" />
<glyph unicode="e" horiz-adv-x="1181" d="M51 518q0 151 71.5 276.5t194.5 197t269 71.5q111 0 208 -35.5t173 -103.5q77 -69 119 -180q41 -106 40 -239v-13q0 -31 -21 -52.5t-50 -21.5h-682q25 -88 94 -132t168 -44q110 0 184 63q13 12 31 13.5t33 -7.5l145 -86q21 -13 25 -38.5t-11 -45.5q-70 -77 -175 -121.5 t-232 -44.5q-263 0 -423.5 150.5t-160.5 392.5zM375 618h448q-20 90 -78 134.5t-147 44.5q-81 0 -140.5 -47t-82.5 -132z" />
<glyph unicode="f" horiz-adv-x="806" d="M80 838v127q0 31 21.5 52t52.5 21h55q0 64 9 121.5t35 119.5t68 106t114 73t167 29q42 0 96 -8q20 -3 33.5 -18.5t13.5 -37.5v-161q0 -23 -16.5 -39.5t-38.5 -14.5h-6q-80 0 -111.5 -42t-31.5 -128h131q31 0 52 -21t21 -52v-127q0 -31 -21 -52.5t-52 -21.5h-131v-690 q0 -31 -21.5 -52.5t-52.5 -21.5h-186q-29 0 -50.5 21.5t-21.5 52.5v690h-55q-31 0 -52.5 21.5t-21.5 52.5z" />
<glyph unicode="g" horiz-adv-x="1286" d="M49 555q0 103 34 194.5t96.5 161.5t158 111t211.5 41q193 0 291 -137v57q0 23 16 39t39 16h205q31 0 52.5 -21t21.5 -52v-873q0 -227 -155.5 -366.5t-426.5 -139.5q-145 0 -267.5 44t-195.5 120q-19 19 -16 46t26 40l158 92q15 9 29 9q18 0 34 -13q76 -69 215 -69 q144 0 204.5 70.5t60.5 201.5v47q-98 -127 -291 -127q-116 0 -211.5 41t-158 111t-96.5 161.5t-34 194.5zM385 555q0 -97 60.5 -159t162.5 -62q96 0 158.5 60t62.5 161q0 102 -62.5 162.5t-158.5 60.5q-102 0 -162.5 -62t-60.5 -161z" />
<glyph unicode="h" horiz-adv-x="1222" d="M113 74v1286q0 31 20.5 52.5t50.5 21.5h187q31 0 52 -21.5t21 -52.5v-416q100 119 283 119q94 0 168.5 -35t120 -94t69 -132t23.5 -153v-575q0 -31 -21.5 -52.5t-50.5 -21.5h-186q-31 0 -52.5 21.5t-21.5 52.5v485q0 87 -46.5 132.5t-119.5 45.5q-76 0 -121 -46t-45 -132 v-485q0 -31 -21 -52.5t-52 -21.5h-187q-30 0 -50.5 21.5t-20.5 52.5z" />
<glyph unicode="i" horiz-adv-x="557" d="M102 1329q0 72 52.5 123t124.5 51t123 -51t51 -123t-51 -123t-123 -51t-124.5 51t-52.5 123zM111 74v891q0 31 21 52t52 21h187q31 0 52 -21t21 -52v-891q0 -31 -21 -52.5t-52 -21.5h-187q-31 0 -52 21.5t-21 52.5z" />
<glyph unicode="j" horiz-adv-x="557" d="M-80 -129q0 22 15.5 37.5t37.5 15.5q71 2 104.5 35.5t33.5 114.5v891q0 31 21 52t52 21h187q29 0 50 -21t21 -52v-928q0 -88 -21.5 -161t-65 -130.5t-117.5 -90t-172 -32.5q-50 0 -97 6q-20 1 -34.5 17.5t-14.5 36.5v188zM102 1329q0 72 51 123t123 51t123.5 -51 t51.5 -123t-51.5 -123t-123.5 -51t-123 51t-51 123z" />
<glyph unicode="k" horiz-adv-x="1150" d="M113 55v1323q0 23 16 39.5t39 16.5h223q22 0 37.5 -16.5t15.5 -39.5v-768l261 387q26 41 75 41h217q33 0 48.5 -30t-3.5 -56l-284 -403l313 -463q20 -28 4.5 -57t-49.5 -29h-235q-52 0 -78 41l-269 416v-402q0 -23 -15.5 -39t-37.5 -16h-223q-23 0 -39 16t-16 39z" />
<glyph unicode="l" horiz-adv-x="559" d="M113 74v1286q0 31 21 52.5t50 21.5h189q29 0 50 -21.5t21 -52.5v-1286q0 -31 -21 -52.5t-50 -21.5h-189q-29 0 -50 21.5t-21 52.5z" />
<glyph unicode="m" horiz-adv-x="1777" d="M113 74v891q0 31 21 52t52 21h205q22 0 37.5 -16t15.5 -39v-25q94 105 258 105q204 0 293 -139q105 139 297 139q183 0 278 -105.5t95 -271.5v-612q0 -31 -21.5 -52.5t-52.5 -21.5h-186q-31 0 -52.5 21.5t-21.5 52.5v522q0 41 -13.5 71t-35.5 44t-43.5 20t-44.5 6 t-45 -6.5t-44.5 -20.5t-36 -43.5t-13.5 -70.5v-522q0 -31 -21.5 -52.5t-52.5 -21.5h-186q-29 0 -50.5 21.5t-21.5 52.5v522q0 41 -13.5 71t-36 44t-44 20t-45.5 6q-23 0 -45 -6.5t-44.5 -20.5t-36.5 -43.5t-14 -70.5v-522q0 -31 -21 -52.5t-50 -21.5h-187q-31 0 -52 21.5 t-21 52.5z" />
<glyph unicode="n" horiz-adv-x="1222" d="M113 74v891q0 31 21 52t52 21h205q23 0 39 -16t16 -39v-39q100 119 283 119q94 0 168.5 -35t120 -94t69 -132t23.5 -153v-575q0 -31 -21.5 -52.5t-50.5 -21.5h-188q-29 0 -50.5 21.5t-21.5 52.5v485q0 87 -46.5 132.5t-119.5 45.5q-76 0 -121 -46t-45 -132v-485 q0 -31 -21 -52.5t-52 -21.5h-187q-31 0 -52 21.5t-21 52.5z" />
<glyph unicode="o" horiz-adv-x="1216" d="M51 518q0 153 71 277.5t199 196t287 71.5q160 0 288 -71.5t198.5 -196t70.5 -277.5q0 -232 -157.5 -388.5t-399.5 -156.5q-241 0 -399 156.5t-158 388.5zM387 518q0 -93 61.5 -157t159.5 -64q99 0 161 64t62 157t-62 158t-161 65q-98 0 -159.5 -65t-61.5 -158z" />
<glyph unicode="p" d="M113 -324v1289q0 31 21 52t50 21h205q23 0 39 -16t16 -39v-47q102 127 293 127q117 0 213.5 -46.5t157.5 -124t94 -174t33 -200.5q0 -103 -33 -199t-94 -173.5t-157.5 -124t-213.5 -46.5q-191 0 -293 127v-426q0 -29 -21 -50t-52 -21h-187q-29 0 -50 21t-21 50zM455 518 q0 -100 63.5 -160.5t159.5 -60.5q101 0 161 62t60 159q0 98 -60 160.5t-161 62.5q-96 0 -159.5 -60.5t-63.5 -162.5z" />
<glyph unicode="q" horiz-adv-x="1286" d="M51 518q0 104 33 200.5t94 174t157.5 124t213.5 46.5q191 0 293 -127v47q0 23 16 39t39 16h205q30 0 51 -21t21 -52v-1289q0 -29 -21.5 -50t-50.5 -21h-187q-31 0 -52 21t-21 50v426q-102 -127 -293 -127q-117 0 -213.5 46.5t-157.5 124t-94 173.5t-33 199zM387 518 q0 -97 60 -159t161 -62q96 0 159.5 60.5t63.5 160.5q0 102 -63.5 162.5t-159.5 60.5q-101 0 -161 -62.5t-60 -160.5z" />
<glyph unicode="r" horiz-adv-x="823" d="M113 74v891q0 31 21 52t50 21h189q29 0 50 -21t21 -52v-84q45 70 115.5 116t149.5 60q25 5 45 -11t20 -42v-236q0 -24 -17.5 -40.5t-41.5 -14.5q-18 1 -35 1q-38 0 -69 -6q-45 -9 -74 -30.5t-48 -48t-28.5 -65t-13 -73.5t-3.5 -81v-336q0 -31 -21 -52.5t-50 -21.5h-189 q-29 0 -50 21.5t-21 52.5z" />
<glyph unicode="s" horiz-adv-x="989" d="M49 211.5q10 23.5 35 30.5l203 63q10 3 18 3q26 0 43 -23q36 -52 129 -52q125 0 125 76q0 20 -11 33.5t-36 22t-48 13.5t-65 12t-69 13q-160 34 -233.5 103.5t-73.5 216.5q0 160 122.5 250t321.5 90q123 0 226 -52t151 -149q11 -23 -0.5 -47.5t-36.5 -30.5l-176 -43 q-7 -1 -13 -1q-27 0 -43 24q-31 45 -106 45q-125 0 -125 -78q0 -19 10.5 -33t35 -23t42.5 -13.5t55 -10.5t50 -8q202 -42 284 -111t82 -208q0 -166 -119.5 -257.5t-345.5 -91.5q-150 0 -266 46.5t-164 144.5q-12 22 -2 45.5z" />
<glyph unicode="t" horiz-adv-x="839" d="M53 838v127q0 31 21.5 52t52.5 21h74v146q0 29 21 50t50 21h189q29 0 50 -21t21 -50v-146h132q31 0 52 -21t21 -52v-127q0 -31 -21 -52.5t-52 -21.5h-132v-328q0 -84 34 -124t110 -40h6q23 1 39 -14.5t16 -38.5v-176q0 -20 -12.5 -35t-32.5 -18q-54 -8 -98 -8 q-92 0 -163 24.5t-113.5 64t-69.5 96t-37 113.5t-10 123v361h-74q-31 0 -52.5 21.5t-21.5 52.5z" />
<glyph unicode="u" horiz-adv-x="1222" d="M113 389v576q0 31 21 52t52 21h187q31 0 52 -21t21 -52v-486q0 -87 46.5 -133.5t119.5 -46.5q74 0 120 47.5t46 132.5v486q0 31 21 52t51 21h186q31 0 52.5 -21t21.5 -52v-891q0 -31 -21.5 -52.5t-52.5 -21.5h-205q-22 0 -37.5 16t-15.5 39v39q-103 -119 -284 -119 q-93 0 -167.5 34.5t-120 93.5t-69.5 132t-24 154z" />
<glyph unicode="v" horiz-adv-x="1169" d="M51 963q-10 28 6 51.5t45 23.5h207q29 0 53 -17.5t33 -45.5l191 -598l190 598q9 28 33 45.5t53 17.5h209q28 0 43.5 -23.5t5.5 -51.5l-350 -906q-11 -26 -34 -41.5t-52 -15.5h-197q-28 0 -52 15.5t-34 41.5z" />
<glyph unicode="w" horiz-adv-x="1652" d="M45 967q-8 27 8 49t45 22h207q31 0 56 -19t32 -48l135 -514l174 518q9 29 32.5 46t53.5 17h78q30 0 53.5 -17t32.5 -46l174 -518l136 514q7 29 32 48t56 19h206q29 0 46 -22.5t8 -48.5l-303 -906q-10 -28 -34.5 -44.5t-53.5 -16.5h-136q-29 0 -53 16.5t-33 44.5l-170 498 l-168 -498q-10 -28 -34.5 -44.5t-53.5 -16.5h-135q-29 0 -53 16.5t-33 44.5z" />
<glyph unicode="x" horiz-adv-x="1148" d="M70 28q-15 28 2 56l276 436l-262 434q-17 28 -1 56t48 28h221q26 0 47.5 -14t32.5 -37l139 -272l138 272q26 51 82 51h221q32 0 47 -28t0 -56l-262 -434l276 -436q17 -28 1 -56t-48 -28h-221q-54 0 -80 47l-154 275l-155 -275q-23 -47 -78 -47h-223q-32 0 -47 28z" />
<glyph unicode="y" horiz-adv-x="1169" d="M51 963q-12 26 4 50.5t47 24.5h205q29 0 53 -16.5t33 -44.5l189 -526l190 526q9 28 33 44.5t53 16.5h209q29 0 45 -23.5t6 -51.5q-30 -75 -119.5 -302.5t-164.5 -415.5t-99 -245q-21 -50 -36.5 -84t-40 -79t-47 -75t-55 -62t-66.5 -51t-78.5 -31.5t-94.5 -12.5 q-31 0 -81 4q-21 3 -34.5 18.5t-13.5 36.5v172q0 22 16 37.5t38 17.5q73 1 116.5 42t73.5 128q-6 16 -78.5 187t-171 403.5t-131.5 311.5z" />
<glyph unicode="z" horiz-adv-x="1024" d="M84 74v131q0 34 20 57l381 465h-311q-31 0 -52.5 21.5t-21.5 52.5v164q0 31 21.5 52t52.5 21h678q31 0 52.5 -21t21.5 -52v-131q0 -30 -21 -58l-385 -467h350q31 0 52.5 -21t21.5 -50v-164q0 -31 -21.5 -52.5t-52.5 -21.5h-714q-31 0 -51.5 21.5t-20.5 52.5z" />
<glyph unicode="{" horiz-adv-x="874" d="M125 649v135q0 21 12.5 37t32.5 19q47 6 70.5 37.5t23.5 99.5v303q0 186 95.5 268t289.5 82h70q22 0 37.5 -15t15.5 -38v-184q0 -20 -13 -33.5t-32 -13.5q-91 0 -122.5 -40t-31.5 -120v-246q0 -182 -149 -219v-8q149 -34 149 -219v-246q0 -79 31.5 -119.5t122.5 -40.5 q19 0 32 -13.5t13 -33.5v-184q0 -22 -15.5 -38t-37.5 -16h-70q-194 0 -289.5 83t-95.5 270v303q0 66 -23.5 97.5t-70.5 37.5q-20 3 -32.5 18.5t-12.5 36.5z" />
<glyph unicode="|" horiz-adv-x="536" d="M123 -231v1708q0 31 21.5 52t50.5 21h145q31 0 52.5 -21t21.5 -52v-1708q0 -31 -21.5 -52.5t-52.5 -21.5h-145q-29 0 -50.5 21.5t-21.5 52.5z" />
<glyph unicode="}" horiz-adv-x="874" d="M102 41q0 20 13 33.5t32 13.5q91 0 122.5 40.5t31.5 119.5v246q0 185 152 219v8q-152 37 -152 219v246q0 80 -31.5 120t-122.5 40q-19 0 -32 13.5t-13 33.5v184q0 23 16 38t38 15h69q194 0 289.5 -82t95.5 -268v-303q0 -67 24 -99t71 -38q20 -3 32.5 -19t12.5 -37v-135 q0 -21 -12.5 -36.5t-32.5 -18.5q-47 -6 -71 -37.5t-24 -97.5v-303q0 -187 -95.5 -270t-289.5 -83h-69q-22 0 -38 16t-16 38v184z" />
<glyph unicode="~" horiz-adv-x="1206" d="M115 561q30 103 93 159t175 56q67 0 141 -22t139.5 -44t112.5 -22q54 0 72 41q19 36 61 29l142 -31q23 -4 35.5 -23t7.5 -42q-54 -218 -248 -218q-73 0 -150.5 23.5t-146 47.5t-119.5 24q-52 0 -72 -45q-20 -38 -61 -31l-139 29q-23 5 -36 25.5t-7 43.5z" />
<glyph unicode="&#xa1;" horiz-adv-x="612" d="M123 881q0 75 54 128.5t130 53.5q75 0 130 -53.5t55 -128.5q0 -76 -55 -130.5t-130 -54.5q-76 0 -130 54t-54 131zM127 -319l39 770q1 29 23 49t51 20h135q29 0 49 -20t22 -49l41 -770q1 -31 -20.5 -53.5t-52.5 -22.5h-213q-32 0 -54 22.5t-20 53.5z" />
<glyph unicode="&#xa2;" horiz-adv-x="1196" d="M82 717q0 205 125.5 353t327.5 183v144q0 15 10 26t24 11h93q15 0 25.5 -11t10.5 -26v-137q235 -21 379 -195q15 -20 10.5 -45t-26.5 -37l-195 -117q-37 -19 -67 11q-63 63 -160 63q-98 0 -159.5 -65t-61.5 -158t61.5 -157t159.5 -64q99 0 160 61q30 30 67 10l195 -116 q22 -12 26.5 -37t-10.5 -45q-146 -172 -379 -193v-139q0 -15 -10.5 -26t-25.5 -11h-93q-14 0 -24 11t-10 26v145q-201 34 -327 182t-126 353z" />
<glyph unicode="&#xa3;" horiz-adv-x="1261" d="M82 74v213q0 43 33 69q121 106 121 269h-117q-15 0 -26 11t-11 26v73q0 15 11 26t26 11h92q-4 11 -15 43.5t-16 49.5t-12.5 46t-10.5 58t-3 61q0 88 34 165.5t96 136.5t156.5 93.5t208.5 34.5q342 0 451 -270q13 -31 -2 -60.5t-47 -37.5l-199 -50q-42 -10 -61 27 q-39 72 -117 72q-64 0 -98.5 -42t-34.5 -106q0 -39 22 -117t27 -104h278q15 0 26 -11t11 -26v-73q0 -15 -11 -26t-26 -11h-272q-19 -172 -172 -287v-6h661q31 0 52.5 -21.5t21.5 -52.5v-184q0 -31 -21.5 -52.5t-52.5 -21.5h-931q-29 0 -50.5 21.5t-21.5 52.5z" />
<glyph unicode="&#xa4;" horiz-adv-x="1036" d="M98 397q0 15 11 25l100 100q-57 93 -57 195q0 101 57 194l-100 101q-11 10 -11 25t11 26l63 63q10 10 26 10t27 -10l101 -100q85 57 192 57t195 -57l100 100q11 10 26 10t25 -10l66 -63q10 -11 10 -26t-10 -25l-101 -101q56 -91 56 -194q0 -104 -56 -195l101 -100 q10 -10 10 -25t-10 -26l-66 -64q-10 -11 -25 -11t-26 11l-100 101q-89 -58 -195 -58t-192 58l-101 -101q-11 -11 -27 -11t-26 11l-63 64q-11 11 -11 26zM371 717q0 -61 43.5 -104.5t103.5 -43.5q62 0 105 43.5t43 104.5t-43 104t-105 43q-60 0 -103.5 -43t-43.5 -104z" />
<glyph unicode="&#xa5;" horiz-adv-x="1423" d="M68 1352q-15 28 0.5 55t46.5 27h217q31 0 57 -16t39 -44l285 -549l284 549q13 28 39.5 44t57.5 16h217q31 0 46.5 -27t0.5 -55l-391 -676h157q15 0 26 -10.5t11 -24.5v-74q0 -15 -11 -26t-26 -11h-235v-98h235q15 0 26 -11t11 -26v-73q0 -14 -11 -24.5t-26 -10.5h-235 v-213q0 -31 -21.5 -52.5t-52.5 -21.5h-205q-31 0 -52 21.5t-21 52.5v213h-236q-15 0 -26 10.5t-11 24.5v73q0 15 11 26t26 11h236v98h-236q-15 0 -26 11t-11 26v74q0 14 11 24.5t26 10.5h158z" />
<glyph unicode="&#xa6;" horiz-adv-x="538" d="M123 -231v581q0 29 21.5 50.5t52.5 21.5h145q31 0 52.5 -21.5t21.5 -50.5v-581q0 -31 -21.5 -52.5t-52.5 -21.5h-145q-31 0 -52.5 21.5t-21.5 52.5zM123 897v580q0 31 21.5 52t52.5 21h145q31 0 52.5 -21t21.5 -52v-580q0 -31 -21.5 -52.5t-52.5 -21.5h-145 q-31 0 -52.5 21.5t-21.5 52.5z" />
<glyph unicode="&#xa7;" horiz-adv-x="1187" d="M102 616q0 80 45.5 156t112.5 119q-76 79 -76 203q0 164 119 265t318 101q155 0 259.5 -56t149.5 -157q11 -25 -1 -48.5t-38 -27.5l-170 -38q-36 -6 -59 26q-19 32 -52.5 52t-78.5 20q-63 0 -97 -33t-34 -82q0 -41 32.5 -71.5t84 -51.5t113.5 -41t124.5 -48t114 -64.5 t84 -97.5t32.5 -140t-44 -154.5t-111 -119.5q74 -81 74 -201q0 -164 -118.5 -265.5t-316.5 -101.5q-157 0 -261 55.5t-148 155.5q-11 25 0 48.5t37 29.5l170 37q17 4 33.5 -3.5t25.5 -23.5q44 -71 131 -71q63 0 97 33t34 83q0 40 -32.5 70.5t-84 51.5t-114 41t-125 48 t-114 64t-84 97t-32.5 140zM389 651q0 -39 37.5 -72t74 -48t111.5 -40q19 -7 29 -10q15 -5 43 -15t43 -15q32 21 53 52.5t21 65.5q0 30 -19 55t-52 43t-70.5 32.5t-81.5 29.5q-21 6 -31 10q-67 23 -86 31q-72 -54 -72 -119z" />
<glyph unicode="&#xa8;" horiz-adv-x="1034" d="M123 1327q0 66 47 113t113 47t112.5 -47t46.5 -113t-46.5 -113t-112.5 -47t-113 47t-47 113zM590 1327q0 66 47 113t113 47q67 0 114 -47t47 -113t-47 -113t-114 -47q-66 0 -113 47t-47 113z" />
<glyph unicode="&#xa9;" horiz-adv-x="1656" d="M92 717q0 200 98.5 369.5t267.5 268.5t369 99q150 0 286.5 -58.5t235.5 -157.5t157.5 -235t58.5 -286q0 -120 -37.5 -232t-106 -202.5t-159 -158.5t-203 -105t-232.5 -37q-200 0 -369 98.5t-267.5 267.5t-98.5 369zM219 717q0 -165 81.5 -305t221.5 -221.5t305 -81.5 t305.5 81.5t222 221.5t81.5 305t-81.5 305t-222 221.5t-305.5 81.5t-305 -81.5t-221.5 -221.5t-81.5 -305zM461 717q0 164 109.5 273.5t273.5 109.5t270 -109q12 -12 10.5 -30t-16.5 -27l-90 -60q-24 -14 -43 5q-53 47 -131 47q-91 0 -143 -62.5t-52 -146.5t52 -146.5 t143 -62.5q79 0 131 49q21 18 43 2l90 -59q15 -9 16.5 -27t-10.5 -31q-105 -108 -270 -108q-164 0 -273.5 109.5t-109.5 273.5z" />
<glyph unicode="&#xab;" horiz-adv-x="1273" d="M102 514q0 28 15 51l184 271q27 41 76 41h176q32 0 48 -29t-3 -57l-188 -277l188 -276q19 -28 3 -57t-48 -29h-176q-49 0 -76 41l-184 270q-15 23 -15 51zM638 514q0 28 15 51l185 271q24 41 75 41h177q32 0 48 -29t-3 -57l-189 -277l189 -276q19 -28 3 -57t-48 -29h-177 q-51 0 -75 41l-185 270q-15 23 -15 51z" />
<glyph unicode="&#xad;" horiz-adv-x="903" d="M123 537v147q0 29 21.5 50.5t52.5 21.5h510q31 0 52 -21t21 -51v-147q0 -29 -21 -50.5t-52 -21.5h-510q-31 0 -52.5 21.5t-21.5 50.5z" />
<glyph unicode="&#xae;" horiz-adv-x="1656" d="M92 717q0 200 99 369.5t268.5 268.5t369.5 99q150 0 286 -58.5t234.5 -157.5t157 -235t58.5 -286t-58.5 -286t-157 -234.5t-234.5 -156.5t-286 -58q-200 0 -369.5 98.5t-268.5 267.5t-99 369zM221 717q0 -165 81.5 -305t221.5 -221.5t305 -81.5t305.5 81.5t222 221.5 t81.5 305t-81.5 305t-222 221.5t-305.5 81.5t-305 -81.5t-221.5 -221.5t-81.5 -305zM553 410v634q0 22 16 38t39 16h252q137 0 211 -70t74 -186q0 -69 -33.5 -122t-93.5 -83l131 -229q9 -18 -1.5 -36t-31.5 -18h-96q-45 0 -64 39l-106 211h-115v-194q0 -23 -15.5 -39.5 t-37.5 -16.5h-74q-23 0 -39 16.5t-16 39.5zM735 756h125q44 0 72.5 21t28.5 65q0 40 -27.5 62t-73.5 22h-125v-170z" />
<glyph unicode="&#xaf;" horiz-adv-x="860" d="M123 1262v90q0 31 21.5 52t52.5 21h469q31 0 52 -21t21 -52v-90q0 -31 -21 -52.5t-52 -21.5h-469q-31 0 -52.5 21.5t-21.5 52.5z" />
<glyph unicode="&#xb0;" horiz-adv-x="825" d="M82 1104q0 135 98 232.5t234 97.5t232.5 -97.5t96.5 -232.5q0 -137 -96.5 -234.5t-232.5 -97.5t-234 98t-98 234zM283 1104q0 -54 38.5 -92.5t92.5 -38.5t91.5 38.5t37.5 92.5q0 53 -37.5 91t-91.5 38t-92.5 -38t-38.5 -91z" />
<glyph unicode="&#xb1;" horiz-adv-x="1048" d="M123 74v108q0 31 21.5 52.5t52.5 21.5h657q29 0 50.5 -21.5t21.5 -52.5v-108q0 -31 -21.5 -52.5t-50.5 -21.5h-657q-31 0 -52.5 21.5t-21.5 52.5zM123 766v127q0 31 21.5 52.5t52.5 21.5h192v172q0 31 21.5 52t50.5 21h127q31 0 52.5 -21t21.5 -52v-172h192 q29 0 50.5 -21.5t21.5 -52.5v-127q0 -31 -21.5 -52.5t-50.5 -21.5h-192v-174q0 -29 -21.5 -50.5t-52.5 -21.5h-127q-29 0 -50.5 21.5t-21.5 50.5v174h-192q-31 0 -52.5 21.5t-21.5 52.5z" />
<glyph unicode="&#xb4;" horiz-adv-x="708" d="M147 1233l84 182q10 24 32.5 38.5t49.5 14.5h203q22 0 32.5 -19t-1.5 -38l-133 -190q-25 -39 -74 -39h-160q-20 0 -31 17t-2 34z" />
<glyph unicode="&#xb6;" horiz-adv-x="1361" d="M61 1075q0 117 60 199.5t157 121t220 38.5h688q31 0 52.5 -21.5t21.5 -52.5v-158q0 -29 -21.5 -50.5t-52.5 -21.5h-27v-1239q0 -30 -21 -50.5t-51 -20.5h-110q-31 0 -52.5 20.5t-21.5 50.5v1239h-184v-1239q0 -30 -21.5 -50.5t-52.5 -20.5h-108q-31 0 -52.5 20.5 t-21.5 50.5v828q-114 5 -203 45t-144 120t-55 191z" />
<glyph unicode="&#xb8;" horiz-adv-x="737" d="M148 -459.5q-8 23.5 4 45.5l36 68q8 12 21 17t27 -1q40 -16 77 -16q47 0 71 22t24 56q0 36 -23 51.5t-55 15.5q-17 0 -41 -4q-23 -7 -39 12l-17 21q-19 29 -4 59l41 82q14 31 49 31h48q21 0 31 -17t1 -36l-20 -41q106 2 170.5 -49t64.5 -156q0 -102 -77 -160.5 t-189 -58.5q-92 0 -168 26q-24 9 -32 32.5z" />
<glyph unicode="&#xbb;" horiz-adv-x="1275" d="M138.5 181q-15.5 29 4.5 57l187 276l-187 277q-20 28 -4.5 57t49.5 29h177q49 0 73 -41l185 -271q17 -23 17 -51t-17 -51l-185 -270q-24 -41 -73 -41h-177q-34 0 -49.5 29zM675 181q-16 29 3 57l188 276l-188 277q-19 28 -3 57t50 29h176q50 0 74 -41l184 -271 q17 -23 17 -51t-17 -51l-184 -270q-24 -41 -74 -41h-176q-34 0 -50 29z" />
<glyph unicode="&#xbf;" horiz-adv-x="1056" d="M61 -27q0 74 24.5 134.5t62 102t76 77.5t73 79.5t47.5 90.5q9 28 33 45.5t55 17.5h162q35 0 57.5 -27t14.5 -61q-13 -61 -44.5 -116.5t-66.5 -94.5t-68 -74.5t-55 -71.5t-22 -71q0 -55 34 -87t97 -32q43 0 75 23t48 59q11 25 34.5 37t49.5 6l174 -45q31 -8 46 -35.5 t5 -58.5q-51 -147 -172 -220t-285 -73q-110 0 -199 34t-143.5 90.5t-83.5 126t-29 144.5zM330 881q0 75 54 128.5t130 53.5q75 0 129.5 -53.5t54.5 -128.5q0 -76 -54.5 -130.5t-129.5 -54.5q-76 0 -130 54t-54 131z" />
<glyph unicode="&#xc0;" horiz-adv-x="1486" d="M47 74l469 1300q9 26 33 43t53 17h285q29 0 53 -17t33 -43l467 -1300q10 -28 -6 -51t-45 -23h-222q-31 0 -55 17.5t-33 45.5l-63 205h-543l-63 -205q-9 -28 -33 -45.5t-55 -17.5h-224q-28 0 -44 23t-7 51zM447.5 1859q9.5 19 31.5 19h203q27 0 49.5 -14.5t32.5 -38.5 l86 -183q8 -18 -2.5 -34.5t-30.5 -16.5h-160q-50 0 -75 39l-131 191q-13 19 -3.5 38zM557 532h375l-189 598z" />
<glyph unicode="&#xc1;" horiz-adv-x="1486" d="M47 74l469 1300q9 26 33 43t53 17h285q29 0 53 -17t33 -43l467 -1300q10 -28 -6 -51t-45 -23h-222q-31 0 -55 17.5t-33 45.5l-63 205h-543l-63 -205q-9 -28 -33 -45.5t-55 -17.5h-224q-28 0 -44 23t-7 51zM557 532h375l-189 598zM639 1642l84 183q10 24 32.5 38.5 t49.5 14.5h203q22 0 32 -19t-2 -38l-133 -191q-25 -39 -74 -39h-159q-20 0 -31 17t-2 34z" />
<glyph unicode="&#xc2;" horiz-adv-x="1486" d="M47 74l469 1300q9 26 33 43t53 17h285q29 0 53 -17t33 -43l467 -1300q10 -28 -6 -51t-45 -23h-222q-31 0 -55 17.5t-33 45.5l-63 205h-543l-63 -205q-9 -28 -33 -45.5t-55 -17.5h-224q-28 0 -44 23t-7 51zM418 1611.5q-10 20.5 4 39.5l151 192q27 35 72 35h199 q47 0 71 -35l152 -192q14 -19 4 -39.5t-33 -20.5h-145q-45 0 -74 37l-74 103l-75 -103q-26 -37 -74 -37h-145q-23 0 -33 20.5zM557 532h375l-189 598z" />
<glyph unicode="&#xc3;" horiz-adv-x="1486" d="M47 74l469 1300q9 26 33 43t53 17h285q29 0 53 -17t33 -43l467 -1300q10 -28 -6 -51t-45 -23h-222q-31 0 -55 17.5t-33 45.5l-63 205h-543l-63 -205q-9 -28 -33 -45.5t-55 -17.5h-224q-28 0 -44 23t-7 51zM418 1661q47 170 198 170q47 0 114 -31t101 -31q40 0 52 33 q10 26 41 23l100 -19q23 -5 36 -23.5t9 -41.5q-37 -170 -184 -170q-55 0 -132 30.5t-104 30.5q-35 0 -47 -33q-4 -12 -16.5 -18.5t-24.5 -3.5l-100 16q-23 5 -36 25t-7 43zM557 532h375l-189 598z" />
<glyph unicode="&#xc4;" horiz-adv-x="1486" d="M47 74l469 1300q9 26 33 43t53 17h285q29 0 53 -17t33 -43l467 -1300q10 -28 -6 -51t-45 -23h-222q-31 0 -55 17.5t-33 45.5l-63 205h-543l-63 -205q-9 -28 -33 -45.5t-55 -17.5h-224q-28 0 -44 23t-7 51zM350 1737q0 66 47 112.5t113 46.5t113 -46.5t47 -112.5t-47 -113 t-113 -47t-113 47t-47 113zM557 532h375l-189 598zM817 1737q0 66 47 112.5t113 46.5q67 0 114.5 -46.5t47.5 -112.5t-47.5 -113t-114.5 -47q-66 0 -113 47t-47 113z" />
<glyph unicode="&#xc5;" horiz-adv-x="1486" d="M47 74l469 1300q9 26 33 43t53 17h285q29 0 53 -17t33 -43l467 -1300q10 -28 -6 -51t-45 -23h-222q-31 0 -55 17.5t-33 45.5l-63 205h-543l-63 -205q-9 -28 -33 -45.5t-55 -17.5h-224q-28 0 -44 23t-7 51zM504 1755q0 98 69.5 168t167.5 70q100 0 170 -70t70 -168 q0 -100 -70 -169.5t-170 -69.5q-98 0 -167.5 69.5t-69.5 169.5zM557 532h375l-189 598zM649 1755q0 -38 27.5 -66t64.5 -28q38 0 66.5 28t28.5 66t-28 65t-67 27q-37 0 -64.5 -27t-27.5 -65z" />
<glyph unicode="&#xc6;" horiz-adv-x="1966" d="M59 78l629 1294q14 28 40.5 45t57.5 17h1006q31 0 52.5 -21.5t21.5 -52.5v-184q0 -29 -21.5 -50.5t-52.5 -21.5h-459v-223h393q31 0 52.5 -21.5t21.5 -52.5v-166q0 -31 -21.5 -52.5t-52.5 -21.5h-393v-235h477q31 0 52.5 -21.5t21.5 -52.5v-184q0 -31 -21.5 -52.5 t-52.5 -21.5h-753q-31 0 -52.5 21.5t-21.5 52.5v194h-477l-94 -213q-10 -26 -33 -40.5t-51 -14.5h-219q-31 0 -47.5 26t-2.5 52zM623 532h360v572h-109z" />
<glyph unicode="&#xc7;" horiz-adv-x="1411" d="M72 717q0 211 92.5 380.5t259 266t375.5 96.5q157 0 290 -55t232 -156q25 -25 21 -59t-33 -53l-172 -115q-20 -14 -44.5 -11.5t-43.5 19.5q-98 92 -250 92q-90 0 -163.5 -34.5t-119 -92t-70 -129t-24.5 -149.5t24.5 -149.5t70 -129.5t119 -92.5t163.5 -34.5q148 0 250 92 q19 17 43.5 19.5t44.5 -10.5l172 -115q29 -19 33 -52.5t-21 -58.5q-95 -98 -224.5 -153t-281.5 -58l-35 -69q106 2 171 -49t65 -156q0 -103 -76.5 -161t-189.5 -58q-92 0 -168 26q-24 7 -32.5 31.5t3.5 46.5l37 68q16 26 47 16q32 -16 78 -16q47 0 71.5 21.5t24.5 54.5 q0 36 -24 52.5t-56 16.5q-24 0 -39 -6q-24 -6 -41 14l-16 21q-20 27 -4 57l49 99q-270 40 -439 243t-169 490z" />
<glyph unicode="&#xc8;" horiz-adv-x="1105" d="M123 74v1286q0 31 21.5 52.5t52.5 21.5h735q31 0 52.5 -21.5t21.5 -52.5v-184q0 -29 -21.5 -50.5t-52.5 -21.5h-459v-223h393q31 0 52.5 -21.5t21.5 -52.5v-166q0 -31 -21.5 -52.5t-52.5 -21.5h-393v-235h477q31 0 52.5 -21.5t21.5 -52.5v-184q0 -31 -21.5 -52.5 t-52.5 -21.5h-753q-31 0 -52.5 21.5t-21.5 52.5zM298 1859q10 19 32 19h202q27 0 49.5 -14.5t32.5 -38.5l86 -183q8 -18 -2 -34.5t-30 -16.5h-160q-51 0 -76 39l-131 191q-13 19 -3 38z" />
<glyph unicode="&#xc9;" horiz-adv-x="1105" d="M123 74v1286q0 31 21.5 52.5t52.5 21.5h735q31 0 52.5 -21.5t21.5 -52.5v-184q0 -29 -21.5 -50.5t-52.5 -21.5h-459v-223h393q31 0 52.5 -21.5t21.5 -52.5v-166q0 -31 -21.5 -52.5t-52.5 -21.5h-393v-235h477q31 0 52.5 -21.5t21.5 -52.5v-184q0 -31 -21.5 -52.5 t-52.5 -21.5h-753q-31 0 -52.5 21.5t-21.5 52.5zM449 1642l83 183q10 24 32.5 38.5t49.5 14.5h203q22 0 32.5 -19t-1.5 -38l-133 -191q-25 -39 -74 -39h-160q-20 0 -30.5 17t-1.5 34z" />
<glyph unicode="&#xca;" horiz-adv-x="1105" d="M123 74v1286q0 31 21.5 52.5t52.5 21.5h735q31 0 52.5 -21.5t21.5 -52.5v-184q0 -29 -21.5 -50.5t-52.5 -21.5h-459v-223h393q31 0 52.5 -21.5t21.5 -52.5v-166q0 -31 -21.5 -52.5t-52.5 -21.5h-393v-235h477q31 0 52.5 -21.5t21.5 -52.5v-184q0 -31 -21.5 -52.5 t-52.5 -21.5h-753q-31 0 -52.5 21.5t-21.5 52.5zM248 1611.5q-10 20.5 4 39.5l151 192q27 35 72 35h199q47 0 71 -35l152 -192q14 -19 4 -39.5t-33 -20.5h-145q-45 0 -74 37l-74 103l-75 -103q-26 -37 -74 -37h-145q-23 0 -33 20.5z" />
<glyph unicode="&#xcb;" horiz-adv-x="1105" d="M123 74v1286q0 31 21.5 52.5t52.5 21.5h735q31 0 52.5 -21.5t21.5 -52.5v-184q0 -29 -21.5 -50.5t-52.5 -21.5h-459v-223h393q31 0 52.5 -21.5t21.5 -52.5v-166q0 -31 -21.5 -52.5t-52.5 -21.5h-393v-235h477q31 0 52.5 -21.5t21.5 -52.5v-184q0 -31 -21.5 -52.5 t-52.5 -21.5h-753q-31 0 -52.5 21.5t-21.5 52.5zM178 1737q0 66 47 112.5t113 46.5t113 -46.5t47 -112.5t-47 -113t-113 -47t-113 47t-47 113zM645 1737q0 66 47 112.5t113 46.5q67 0 114.5 -46.5t47.5 -112.5t-47.5 -113t-114.5 -47q-66 0 -113 47t-47 113z" />
<glyph unicode="&#xcc;" horiz-adv-x="595" d="M3 1859q10 19 32 19h203q27 0 49 -14t32 -39l87 -183q8 -18 -2.5 -34.5t-30.5 -16.5h-160q-51 0 -76 39l-131 191q-13 19 -3 38zM123 74v1286q0 31 21.5 52.5t52.5 21.5h204q31 0 52.5 -21.5t21.5 -52.5v-1286q0 -31 -21.5 -52.5t-52.5 -21.5h-204q-31 0 -52.5 21.5 t-21.5 52.5z" />
<glyph unicode="&#xcd;" horiz-adv-x="595" d="M123 74v1286q0 31 21.5 52.5t52.5 21.5h204q31 0 52.5 -21.5t21.5 -52.5v-1286q0 -31 -21.5 -52.5t-52.5 -21.5h-204q-31 0 -52.5 21.5t-21.5 52.5zM174 1642l84 183q10 24 32.5 38.5t49.5 14.5h203q22 0 32 -19t-2 -38l-133 -191q-25 -39 -73 -39h-160q-20 0 -31 17 t-2 34z" />
<glyph unicode="&#xce;" horiz-adv-x="595" d="M-29 1611.5q-10 20.5 4 39.5l152 192q27 35 72 35h198q48 0 72 -35l152 -192q14 -19 4 -39.5t-33 -20.5h-146q-44 0 -73 37l-74 103l-76 -103q-26 -37 -73 -37h-146q-23 0 -33 20.5zM123 74v1286q0 31 21.5 52.5t52.5 21.5h204q31 0 52.5 -21.5t21.5 -52.5v-1286 q0 -31 -21.5 -52.5t-52.5 -21.5h-204q-31 0 -52.5 21.5t-21.5 52.5z" />
<glyph unicode="&#xcf;" horiz-adv-x="595" d="M-96 1737q0 66 46.5 112.5t112.5 46.5t113 -46.5t47 -112.5t-47 -113t-113 -47t-112.5 47t-46.5 113zM123 74v1286q0 31 21.5 52.5t52.5 21.5h204q31 0 52.5 -21.5t21.5 -52.5v-1286q0 -31 -21.5 -52.5t-52.5 -21.5h-204q-31 0 -52.5 21.5t-21.5 52.5zM371 1737 q0 66 46.5 112.5t112.5 46.5q67 0 114.5 -46.5t47.5 -112.5t-47.5 -113t-114.5 -47q-66 0 -112.5 47t-46.5 113z" />
<glyph unicode="&#xd0;" horiz-adv-x="1517" d="M20 690v53q0 15 10.5 26t24.5 11h127v580q0 31 21.5 52.5t52.5 21.5h428q356 0 559 -193.5t203 -523.5t-203 -523.5t-559 -193.5h-428q-31 0 -52.5 21.5t-21.5 52.5v579h-127q-14 0 -24.5 11t-10.5 26zM535 332h149q183 0 296.5 100t113.5 285t-113.5 286t-296.5 101 h-149v-324h233q15 0 26 -11t11 -26v-53q0 -15 -11 -26t-26 -11h-233v-321z" />
<glyph unicode="&#xd1;" horiz-adv-x="1464" d="M123 74v1286q0 31 21.5 52.5t52.5 21.5h176q58 0 90 -50l526 -786v762q0 31 21.5 52.5t52.5 21.5h207q29 0 50 -21.5t21 -52.5v-1286q0 -31 -21 -52.5t-50 -21.5h-176q-62 0 -90 49l-529 787v-762q0 -31 -21.5 -52.5t-50.5 -21.5h-206q-31 0 -52.5 21.5t-21.5 52.5z M406 1661q47 170 198 170q47 0 114 -31t101 -31q39 0 51 33q10 26 41 23l101 -19q23 -5 36 -23.5t9 -41.5q-37 -170 -185 -170q-55 0 -131.5 30.5t-103.5 30.5q-35 0 -47 -33q-4 -12 -16.5 -18.5t-24.5 -3.5l-100 16q-23 5 -36 25t-7 43z" />
<glyph unicode="&#xd2;" horiz-adv-x="1601" d="M72 717q0 210 93 379t260 265.5t376 96.5t376 -96.5t260 -265.5t93 -379q0 -158 -54.5 -296t-150.5 -236.5t-232 -155t-292 -56.5t-292 56.5t-232 155t-150.5 236.5t-54.5 296zM424 717q0 -78 24.5 -149.5t70 -129.5t119 -92.5t163.5 -34.5t163.5 34.5t119 92.5t70 129.5 t24.5 149.5t-24.5 149t-70 128.5t-119 91.5t-163.5 34t-163.5 -34t-119 -91.5t-70 -128.5t-24.5 -149zM525 1859q10 19 32 19h203q27 0 49.5 -14.5t32.5 -38.5l86 -183q8 -18 -2.5 -34.5t-30.5 -16.5h-160q-51 0 -76 39l-131 191q-13 19 -3 38z" />
<glyph unicode="&#xd3;" horiz-adv-x="1601" d="M72 717q0 210 93 379t260 265.5t376 96.5t376 -96.5t260 -265.5t93 -379q0 -158 -54.5 -296t-150.5 -236.5t-232 -155t-292 -56.5t-292 56.5t-232 155t-150.5 236.5t-54.5 296zM424 717q0 -78 24.5 -149.5t70 -129.5t119 -92.5t163.5 -34.5t163.5 34.5t119 92.5t70 129.5 t24.5 149.5t-24.5 149t-70 128.5t-119 91.5t-163.5 34t-163.5 -34t-119 -91.5t-70 -128.5t-24.5 -149zM676 1642l84 183q10 24 32.5 38.5t49.5 14.5h202q22 0 32.5 -19t-1.5 -38l-133 -191q-25 -39 -74 -39h-159q-20 0 -31 17t-2 34z" />
<glyph unicode="&#xd4;" horiz-adv-x="1601" d="M72 717q0 210 93 379t260 265.5t376 96.5t376 -96.5t260 -265.5t93 -379q0 -158 -54.5 -296t-150.5 -236.5t-232 -155t-292 -56.5t-292 56.5t-232 155t-150.5 236.5t-54.5 296zM424 717q0 -78 24.5 -149.5t70 -129.5t119 -92.5t163.5 -34.5t163.5 34.5t119 92.5t70 129.5 t24.5 149.5t-24.5 149t-70 128.5t-119 91.5t-163.5 34t-163.5 -34t-119 -91.5t-70 -128.5t-24.5 -149zM473 1611.5q-10 20.5 4 39.5l152 192q27 35 71 35h199q48 0 72 -35l151 -192q14 -19 4.5 -39.5t-32.5 -20.5h-146q-45 0 -74 37l-73 103l-76 -103q-26 -37 -74 -37h-145 q-23 0 -33 20.5z" />
<glyph unicode="&#xd5;" horiz-adv-x="1601" d="M72 717q0 210 93 379t260 265.5t376 96.5t376 -96.5t260 -265.5t93 -379q0 -158 -54.5 -296t-150.5 -236.5t-232 -155t-292 -56.5t-292 56.5t-232 155t-150.5 236.5t-54.5 296zM424 717q0 -78 24.5 -149.5t70 -129.5t119 -92.5t163.5 -34.5t163.5 34.5t119 92.5t70 129.5 t24.5 149.5t-24.5 149t-70 128.5t-119 91.5t-163.5 34t-163.5 -34t-119 -91.5t-70 -128.5t-24.5 -149zM475 1661q47 170 199 170q47 0 114 -31t101 -31q39 0 51 33q10 26 41 23l100 -19q23 -5 36 -23.5t9 -41.5q-37 -170 -184 -170q-55 0 -131.5 30.5t-103.5 30.5 q-36 0 -48 -33q-4 -12 -16.5 -18.5t-24.5 -3.5l-100 16q-23 5 -36 25t-7 43z" />
<glyph unicode="&#xd6;" horiz-adv-x="1601" d="M72 717q0 210 93 379t260 265.5t376 96.5t376 -96.5t260 -265.5t93 -379q0 -158 -54.5 -296t-150.5 -236.5t-232 -155t-292 -56.5t-292 56.5t-232 155t-150.5 236.5t-54.5 296zM408 1737q0 66 46.5 112.5t112.5 46.5t113 -46.5t47 -112.5t-47 -113t-113 -47t-112.5 47 t-46.5 113zM424 717q0 -78 24.5 -149.5t70 -129.5t119 -92.5t163.5 -34.5t163.5 34.5t119 92.5t70 129.5t24.5 149.5t-24.5 149t-70 128.5t-119 91.5t-163.5 34t-163.5 -34t-119 -91.5t-70 -128.5t-24.5 -149zM874 1737q0 66 47 112.5t113 46.5q67 0 114.5 -46.5 t47.5 -112.5t-47.5 -113t-114.5 -47q-66 0 -113 47t-47 113z" />
<glyph unicode="&#xd7;" horiz-adv-x="978" d="M132 429q0 30 22 52l129 129l-129 129q-22 22 -22 51.5t22 51.5l104 104q22 22 51 22t51 -22l129 -129l129 129q22 22 52.5 22t50.5 -22l104 -104q22 -22 22 -51.5t-22 -51.5l-129 -129l129 -129q22 -22 22 -52t-22 -50l-104 -105q-20 -22 -50.5 -22t-52.5 22l-129 129 l-129 -129q-22 -22 -51 -22t-51 22l-104 105q-22 20 -22 50z" />
<glyph unicode="&#xd8;" horiz-adv-x="1601" d="M72 717q0 211 93 380.5t260 266t376 96.5q150 0 280 -51.5t228 -146.5l96 88q11 10 25.5 9.5t25.5 -11.5l33 -35q10 -12 9.5 -27t-11.5 -26l-98 -89q141 -196 141 -454q0 -157 -54.5 -294.5t-150.5 -236t-232 -155t-292 -56.5q-152 0 -282 51t-226 146l-96 -88 q-11 -10 -27 -9.5t-25 11.5l-32 37q-10 11 -9.5 25.5t11.5 25.5l98 90q-141 193 -141 453zM424 717q0 -119 51 -215l578 526q-104 94 -252 94q-90 0 -163.5 -34.5t-119 -92t-70 -129t-24.5 -149.5zM549 406q102 -95 252 -95q90 0 163.5 34.5t119 92.5t70 129.5t24.5 149.5 q0 117 -52 215z" />
<glyph unicode="&#xd9;" horiz-adv-x="1443" d="M123 557v803q0 31 21.5 52.5t50.5 21.5h206q29 0 50.5 -21.5t21.5 -52.5v-766q0 -140 64.5 -211.5t183.5 -71.5q120 0 184 71t64 212v766q0 31 21 52.5t52 21.5h205q31 0 52.5 -21.5t21.5 -52.5v-803q0 -288 -156.5 -435t-443.5 -147q-286 0 -442 146.5t-156 435.5z M466 1859q10 19 32 19h202q27 0 49.5 -14.5t32.5 -38.5l86 -183q8 -18 -2 -34.5t-30 -16.5h-160q-51 0 -76 39l-131 191q-13 19 -3 38z" />
<glyph unicode="&#xda;" horiz-adv-x="1443" d="M123 557v803q0 31 21.5 52.5t50.5 21.5h206q29 0 50.5 -21.5t21.5 -52.5v-766q0 -140 64.5 -211.5t183.5 -71.5q120 0 184 71t64 212v766q0 31 21 52.5t52 21.5h205q31 0 52.5 -21.5t21.5 -52.5v-803q0 -288 -156.5 -435t-443.5 -147q-286 0 -442 146.5t-156 435.5z M616 1642l84 183q10 24 32.5 38.5t49.5 14.5h203q22 0 32.5 -19t-1.5 -38l-133 -191q-25 -39 -74 -39h-160q-20 0 -31 17t-2 34z" />
<glyph unicode="&#xdb;" horiz-adv-x="1443" d="M123 557v803q0 31 21.5 52.5t50.5 21.5h206q29 0 50.5 -21.5t21.5 -52.5v-766q0 -140 64.5 -211.5t183.5 -71.5q120 0 184 71t64 212v766q0 31 21 52.5t52 21.5h205q31 0 52.5 -21.5t21.5 -52.5v-803q0 -288 -156.5 -435t-443.5 -147q-286 0 -442 146.5t-156 435.5z M395 1611.5q-10 20.5 4 39.5l152 192q27 35 72 35h198q48 0 72 -35l151 -192q14 -19 4.5 -39.5t-32.5 -20.5h-146q-44 0 -73 37l-74 103l-76 -103q-26 -37 -74 -37h-145q-23 0 -33 20.5z" />
<glyph unicode="&#xdc;" horiz-adv-x="1443" d="M123 557v803q0 31 21.5 52.5t50.5 21.5h206q29 0 50.5 -21.5t21.5 -52.5v-766q0 -140 64.5 -211.5t183.5 -71.5q120 0 184 71t64 212v766q0 31 21 52.5t52 21.5h205q31 0 52.5 -21.5t21.5 -52.5v-803q0 -288 -156.5 -435t-443.5 -147q-286 0 -442 146.5t-156 435.5z M328 1737q0 66 46.5 112.5t112.5 46.5t113 -46.5t47 -112.5t-47 -113t-113 -47t-112.5 47t-46.5 113zM795 1737q0 66 46.5 112.5t112.5 46.5q67 0 114.5 -46.5t47.5 -112.5t-47.5 -113t-114.5 -47q-66 0 -112.5 47t-46.5 113z" />
<glyph unicode="&#xdd;" horiz-adv-x="1425" d="M68 1352q-15 28 0.5 55t46.5 27h217q30 0 56.5 -16.5t39.5 -43.5l285 -549l284 549q13 28 39.5 44t57.5 16h217q31 0 46.5 -27t0.5 -55l-469 -811v-467q0 -31 -21.5 -52.5t-52.5 -21.5h-205q-31 0 -52 21.5t-21 52.5v467zM588 1642l84 183q10 24 32.5 38.5t49.5 14.5h202 q22 0 32.5 -19t-1.5 -38l-133 -191q-25 -39 -74 -39h-159q-20 0 -31 17t-2 34z" />
<glyph unicode="&#xde;" horiz-adv-x="1286" d="M123 74v1286q0 31 21.5 52.5t50.5 21.5h204q31 0 52.5 -21.5t21.5 -52.5v-129h182q266 0 418 -140t152 -374q0 -233 -152.5 -373.5t-417.5 -140.5h-182v-129q0 -31 -21.5 -52.5t-52.5 -21.5h-204q-29 0 -50.5 21.5t-21.5 52.5zM473 535h182q100 0 156.5 49t56.5 133 t-56.5 133t-156.5 49h-182v-364z" />
<glyph unicode="&#xdf;" horiz-adv-x="1232" d="M113 74v915q0 221 139 346t358 125q112 0 204.5 -35.5t152 -95.5t91.5 -137.5t32 -163.5q0 -202 -181 -293q128 -42 201.5 -129t73.5 -219q0 -127 -62 -220t-160 -137t-217 -44q-1 0 -88 6q-20 3 -33.5 18t-13.5 37v160q0 23 15.5 39t38.5 16q33 0 63 7t60 24t47.5 52 t17.5 85q0 77 -48 113.5t-145 42.5q-22 1 -35.5 16t-13.5 37v147q0 22 13.5 37.5t33.5 18.5q51 5 81 40t30 95q0 77 -45.5 118.5t-116.5 41.5q-77 0 -119.5 -51.5t-42.5 -145.5v-866q0 -31 -21 -52.5t-50 -21.5h-189q-29 0 -50 21.5t-21 52.5z" />
<glyph unicode="&#xe0;" d="M51 518q0 104 33 200.5t94 174t157.5 124t213.5 46.5q191 0 293 -127v47q0 23 16 39t39 16h205q31 0 52.5 -21t21.5 -52v-891q0 -31 -21.5 -52.5t-52.5 -21.5h-205q-23 0 -39 16t-16 39v47q-102 -127 -293 -127q-117 0 -213.5 46.5t-157.5 124t-94 173.5t-33 199z M374 1449q10 19 32 19h202q27 0 49.5 -14.5t32.5 -38.5l86 -182q8 -18 -2.5 -34.5t-30.5 -16.5h-159q-51 0 -76 39l-131 190q-13 19 -3 38zM387 518q0 -97 60 -159t161 -62q96 0 159.5 60.5t63.5 160.5q0 102 -63.5 162.5t-159.5 60.5q-101 0 -161 -62.5t-60 -160.5z" />
<glyph unicode="&#xe1;" d="M51 518q0 104 33 200.5t94 174t157.5 124t213.5 46.5q191 0 293 -127v47q0 23 16 39t39 16h205q31 0 52.5 -21t21.5 -52v-891q0 -31 -21.5 -52.5t-52.5 -21.5h-205q-23 0 -39 16t-16 39v47q-102 -127 -293 -127q-117 0 -213.5 46.5t-157.5 124t-94 173.5t-33 199z M387 518q0 -97 60 -159t161 -62q96 0 159.5 60.5t63.5 160.5q0 102 -63.5 162.5t-159.5 60.5q-101 0 -161 -62.5t-60 -160.5zM483 1233l84 182q10 24 32.5 38.5t49.5 14.5h203q22 0 32.5 -19t-1.5 -38l-133 -190q-25 -39 -74 -39h-160q-20 0 -31 17t-2 34z" />
<glyph unicode="&#xe2;" d="M51 518q0 104 33 200.5t94 174t157.5 124t213.5 46.5q191 0 293 -127v47q0 23 16 39t39 16h205q31 0 52.5 -21t21.5 -52v-891q0 -31 -21.5 -52.5t-52.5 -21.5h-205q-23 0 -39 16t-16 39v47q-102 -127 -293 -127q-117 0 -213.5 46.5t-157.5 124t-94 173.5t-33 199z M321.5 1202q-9.5 20 4.5 39l151 193q27 34 72 34h199q47 0 71 -34l152 -193q14 -19 4 -39t-33 -20h-145q-45 0 -74 37l-74 102l-76 -102q-26 -37 -73 -37h-146q-23 0 -32.5 20zM387 518q0 -97 60 -159t161 -62q96 0 159.5 60.5t63.5 160.5q0 102 -63.5 162.5t-159.5 60.5 q-101 0 -161 -62.5t-60 -160.5z" />
<glyph unicode="&#xe3;" d="M51 518q0 104 33 200.5t94 174t157.5 124t213.5 46.5q191 0 293 -127v47q0 23 16 39t39 16h205q31 0 52.5 -21t21.5 -52v-891q0 -31 -21.5 -52.5t-52.5 -21.5h-205q-23 0 -39 16t-16 39v47q-102 -127 -293 -127q-117 0 -213.5 46.5t-157.5 124t-94 173.5t-33 199z M324 1251q47 170 198 170q47 0 114 -30.5t101 -30.5q39 0 51 33q10 25 41 22l101 -18q23 -5 36 -24t9 -42q-37 -170 -184 -170q-55 0 -132 31t-104 31q-35 0 -47 -33q-5 -12 -17 -19t-24 -4l-100 17q-23 5 -36 24.5t-7 42.5zM387 518q0 -97 60 -159t161 -62q96 0 159.5 60.5 t63.5 160.5q0 102 -63.5 162.5t-159.5 60.5q-101 0 -161 -62.5t-60 -160.5z" />
<glyph unicode="&#xe4;" d="M51 518q0 104 33 200.5t94 174t157.5 124t213.5 46.5q191 0 293 -127v47q0 23 16 39t39 16h205q31 0 52.5 -21t21.5 -52v-891q0 -31 -21.5 -52.5t-52.5 -21.5h-205q-23 0 -39 16t-16 39v47q-102 -127 -293 -127q-117 0 -213.5 46.5t-157.5 124t-94 173.5t-33 199z M254 1327q0 66 47 113t113 47t112.5 -47t46.5 -113t-46.5 -113t-112.5 -47t-113 47t-47 113zM387 518q0 -97 60 -159t161 -62q96 0 159.5 60.5t63.5 160.5q0 102 -63.5 162.5t-159.5 60.5q-101 0 -161 -62.5t-60 -160.5zM721 1327q0 66 47 113t113 47q67 0 114 -47t47 -113 t-47 -113t-114 -47q-66 0 -113 47t-47 113z" />
<glyph unicode="&#xe5;" d="M51 518q0 104 33 200.5t94 174t157.5 124t213.5 46.5q191 0 293 -127v47q0 23 16 39t39 16h205q31 0 52.5 -21t21.5 -52v-891q0 -31 -21.5 -52.5t-52.5 -21.5h-205q-23 0 -39 16t-16 39v47q-102 -127 -293 -127q-117 0 -213.5 46.5t-157.5 124t-94 173.5t-33 199z M387 518q0 -97 60 -159t161 -62q96 0 159.5 60.5t63.5 160.5q0 102 -63.5 162.5t-159.5 60.5q-101 0 -161 -62.5t-60 -160.5zM389 1366q0 98 70 168t168 70q99 0 169 -70t70 -168q0 -100 -69.5 -170t-169.5 -70q-98 0 -168 70t-70 170zM535 1366q0 -38 27.5 -66t64.5 -28 q38 0 66 28t28 66t-28 65t-66 27q-37 0 -64.5 -27t-27.5 -65z" />
<glyph unicode="&#xe6;" horiz-adv-x="2115" d="M51 518q0 104 33 200.5t94 174t157.5 124t213.5 46.5q191 0 293 -127v47q0 23 16 39t39 16h223q22 0 38 -16t16 -39v-55q141 135 348 135q111 0 207.5 -35.5t172.5 -104t119 -179.5t41 -252q0 -31 -21 -52.5t-52 -21.5h-680q26 -88 94 -132t166 -44q112 0 186 63 q12 12 30.5 13.5t33.5 -7.5l143 -86q23 -13 27 -38.5t-13 -45.5q-70 -77 -175 -121.5t-232 -44.5q-245 0 -395 134v-54q0 -23 -16 -39t-38 -16h-223q-23 0 -39 16t-16 39v47q-102 -127 -293 -127q-117 0 -213.5 46.5t-157.5 124t-94 173.5t-33 199zM387 518q0 -97 60 -159 t161 -62q96 0 158.5 60t62.5 161q0 102 -62.5 162.5t-158.5 60.5q-101 0 -161 -62.5t-60 -160.5zM1309 618h448q-18 90 -76.5 134.5t-148.5 44.5q-79 0 -139 -47t-84 -132z" />
<glyph unicode="&#xe7;" horiz-adv-x="1101" d="M51 518q0 153 71 277.5t199 196t287 71.5q135 0 248.5 -52t190.5 -145q15 -20 10 -44t-27 -38l-194 -116q-17 -9 -36.5 -6t-31.5 16q-63 63 -160 63q-98 0 -159.5 -64.5t-61.5 -158.5q0 -93 61.5 -157t159.5 -64q97 0 160 63q12 14 31.5 16.5t36.5 -7.5l194 -115 q22 -14 26.5 -38.5t-12.5 -43.5q-73 -92 -183.5 -144t-242.5 -53l-34 -69q105 2 170 -49t65 -156q0 -103 -76.5 -161t-189.5 -58q-94 0 -170 26q-23 7 -32 31.5t3 46.5l39 68q6 12 19.5 16.5t25.5 -0.5q32 -16 78 -16q47 0 71.5 21.5t24.5 54.5q0 36 -23 52.5t-54 16.5 q-23 0 -41 -6q-25 -7 -39 14l-17 21q-20 26 -6 57l51 103q-194 38 -313 184.5t-119 345.5z" />
<glyph unicode="&#xe8;" horiz-adv-x="1181" d="M51 518q0 151 71.5 276.5t194.5 197t269 71.5q111 0 208 -35.5t173 -104t118.5 -179.5t40.5 -252q0 -31 -21 -52.5t-50 -21.5h-682q25 -88 94 -132t168 -44q110 0 184 63q13 12 31 13.5t33 -7.5l145 -86q21 -13 25 -38.5t-11 -45.5q-70 -77 -175 -121.5t-232 -44.5 q-263 0 -423.5 150.5t-160.5 392.5zM335 1449q10 19 32 19h202q27 0 49.5 -14.5t32.5 -38.5l86 -182q8 -18 -2 -34.5t-30 -16.5h-160q-51 0 -76 39l-131 190q-13 19 -3 38zM375 618h448q-20 90 -78 134.5t-147 44.5q-81 0 -140.5 -47t-82.5 -132z" />
<glyph unicode="&#xe9;" horiz-adv-x="1181" d="M51 518q0 151 71.5 276.5t194.5 197t269 71.5q111 0 208 -35.5t173 -104t118.5 -179.5t40.5 -252q0 -31 -21 -52.5t-50 -21.5h-682q25 -88 94 -132t168 -44q110 0 184 63q13 12 31 13.5t33 -7.5l145 -86q21 -13 25 -38.5t-11 -45.5q-70 -77 -175 -121.5t-232 -44.5 q-263 0 -423.5 150.5t-160.5 392.5zM375 618h448q-20 90 -78 134.5t-147 44.5q-81 0 -140.5 -47t-82.5 -132zM444 1233l84 182q10 24 32.5 38.5t49.5 14.5h203q22 0 32.5 -19t-1.5 -38l-133 -190q-25 -39 -74 -39h-160q-20 0 -31 17t-2 34z" />
<glyph unicode="&#xea;" horiz-adv-x="1181" d="M51 518q0 151 71.5 276.5t194.5 197t269 71.5q111 0 208 -35.5t173 -104t118.5 -179.5t40.5 -252q0 -31 -21 -52.5t-50 -21.5h-682q25 -88 94 -132t168 -44q110 0 184 63q13 12 31 13.5t33 -7.5l145 -86q21 -13 25 -38.5t-11 -45.5q-70 -77 -175 -121.5t-232 -44.5 q-263 0 -423.5 150.5t-160.5 392.5zM264 1202q-10 20 4 39l152 193q27 34 72 34h198q48 0 72 -34l151 -193q14 -19 4.5 -39t-32.5 -20h-146q-44 0 -73 37l-74 102l-76 -102q-26 -37 -74 -37h-145q-23 0 -33 20zM375 618h448q-20 90 -78 134.5t-147 44.5q-81 0 -140.5 -47 t-82.5 -132z" />
<glyph unicode="&#xeb;" horiz-adv-x="1181" d="M51 518q0 151 71.5 276.5t194.5 197t269 71.5q111 0 208 -35.5t173 -104t118.5 -179.5t40.5 -252q0 -31 -21 -52.5t-50 -21.5h-682q25 -88 94 -132t168 -44q110 0 184 63q13 12 31 13.5t33 -7.5l145 -86q21 -13 25 -38.5t-11 -45.5q-70 -77 -175 -121.5t-232 -44.5 q-263 0 -423.5 150.5t-160.5 392.5zM197 1327q0 66 46.5 113t112.5 47t113 -47t47 -113t-47 -113t-113 -47t-112.5 47t-46.5 113zM375 618h448q-20 90 -78 134.5t-147 44.5q-81 0 -140.5 -47t-82.5 -132zM664 1327q0 66 46.5 113t112.5 47q67 0 114.5 -47t47.5 -113 t-47.5 -113t-114.5 -47q-66 0 -112.5 47t-46.5 113z" />
<glyph unicode="&#xec;" horiz-adv-x="557" d="M-17.5 1449q9.5 19 31.5 19h203q27 0 49.5 -14.5t32.5 -38.5l86 -182q8 -18 -2.5 -34.5t-30.5 -16.5h-159q-51 0 -76 39l-131 190q-13 19 -3.5 38zM111 74v891q0 31 21 52t52 21h187q31 0 52 -21t21 -52v-891q0 -31 -21 -52.5t-52 -21.5h-187q-31 0 -52 21.5t-21 52.5z " />
<glyph unicode="&#xed;" horiz-adv-x="557" d="M111 74v891q0 31 21 52t52 21h187q31 0 52 -21t21 -52v-891q0 -31 -21 -52.5t-52 -21.5h-187q-31 0 -52 21.5t-21 52.5zM174 1233l84 182q10 24 32.5 38.5t49.5 14.5h203q22 0 32 -19t-2 -38l-133 -190q-25 -39 -73 -39h-160q-20 0 -31 17t-2 34z" />
<glyph unicode="&#xee;" horiz-adv-x="557" d="M-47 1202q-10 20 4 39l152 193q27 34 71 34h199q48 0 72 -34l151 -193q14 -19 4 -39t-33 -20h-145q-45 0 -74 37l-73 102l-76 -102q-26 -37 -74 -37h-145q-23 0 -33 20zM111 74v891q0 31 21 52t52 21h187q31 0 52 -21t21 -52v-891q0 -31 -21 -52.5t-52 -21.5h-187 q-31 0 -52 21.5t-21 52.5z" />
<glyph unicode="&#xef;" horiz-adv-x="557" d="M-115 1327q0 66 47 113t113 47t113 -47t47 -113t-47 -113t-113 -47t-113 47t-47 113zM111 74v891q0 31 21 52t52 21h187q31 0 52 -21t21 -52v-891q0 -31 -21 -52.5t-52 -21.5h-187q-31 0 -52 21.5t-21 52.5zM352 1327q0 66 47 113t113 47q67 0 114.5 -47t47.5 -113 t-47.5 -113t-114.5 -47q-66 0 -113 47t-47 113z" />
<glyph unicode="&#xf0;" horiz-adv-x="1208" d="M51 498q0 211 138.5 339t355.5 128q120 0 198 -47l2 2q-44 103 -188 227l-217 -107q-13 -6 -27.5 -1t-21.5 18l-15 33q-7 14 -2 28.5t19 20.5l168 82q-50 36 -166 102q-23 10 -24.5 36.5t20.5 41.5l137 94q36 25 76 4q110 -63 219 -149l205 100q12 6 26.5 0.5t20.5 -18.5 l16 -33q7 -12 2.5 -26.5t-18.5 -20.5l-164 -82q346 -331 346 -756q0 -251 -154 -395t-403 -144q-252 0 -400.5 149t-148.5 374zM387 498q0 -93 61 -153t152 -60q93 0 152 61t59 152q0 88 -61 149.5t-150 61.5t-151 -59.5t-62 -151.5z" />
<glyph unicode="&#xf1;" horiz-adv-x="1222" d="M113 74v891q0 31 21 52t52 21h205q23 0 39 -16t16 -39v-39q100 119 283 119q94 0 168.5 -35t120 -94t69 -132t23.5 -153v-575q0 -31 -21.5 -52.5t-50.5 -21.5h-188q-29 0 -50.5 21.5t-21.5 52.5v485q0 87 -46.5 132.5t-119.5 45.5q-76 0 -121 -46t-45 -132v-485 q0 -31 -21 -52.5t-52 -21.5h-187q-31 0 -52 21.5t-21 52.5zM285 1251q47 170 198 170q47 0 114 -30.5t101 -30.5q40 0 52 33q10 25 41 22l100 -18q23 -5 36 -24t9 -42q-37 -170 -184 -170q-55 0 -132 31t-104 31q-35 0 -47 -33q-5 -12 -17 -19t-24 -4l-100 17 q-23 5 -36 24.5t-7 42.5z" />
<glyph unicode="&#xf2;" horiz-adv-x="1216" d="M51 518q0 153 71 277.5t199 196t287 71.5q160 0 288 -71.5t198.5 -196t70.5 -277.5q0 -232 -157.5 -388.5t-399.5 -156.5q-241 0 -399 156.5t-158 388.5zM333 1449q10 19 32 19h202q27 0 49.5 -14.5t32.5 -38.5l86 -182q8 -18 -2.5 -34.5t-30.5 -16.5h-159q-51 0 -76 39 l-131 190q-13 19 -3 38zM387 518q0 -93 61.5 -157t159.5 -64q99 0 161 64t62 157t-62 158t-161 65q-98 0 -159.5 -65t-61.5 -158z" />
<glyph unicode="&#xf3;" horiz-adv-x="1216" d="M51 518q0 153 71 277.5t199 196t287 71.5q160 0 288 -71.5t198.5 -196t70.5 -277.5q0 -232 -157.5 -388.5t-399.5 -156.5q-241 0 -399 156.5t-158 388.5zM387 518q0 -93 61.5 -157t159.5 -64q99 0 161 64t62 157t-62 158t-161 65q-98 0 -159.5 -65t-61.5 -158zM483 1233 l84 182q10 24 32.5 38.5t49.5 14.5h203q22 0 32.5 -19t-1.5 -38l-133 -190q-25 -39 -74 -39h-160q-20 0 -31 17t-2 34z" />
<glyph unicode="&#xf4;" horiz-adv-x="1216" d="M51 518q0 153 71 277.5t199 196t287 71.5q160 0 288 -71.5t198.5 -196t70.5 -277.5q0 -232 -157.5 -388.5t-399.5 -156.5q-241 0 -399 156.5t-158 388.5zM282.5 1202q-9.5 20 4.5 39l151 193q27 34 72 34h199q47 0 71 -34l152 -193q14 -19 4 -39t-33 -20h-145 q-45 0 -74 37l-74 102l-75 -102q-26 -37 -74 -37h-146q-23 0 -32.5 20zM387 518q0 -93 61.5 -157t159.5 -64q99 0 161 64t62 157t-62 158t-161 65q-98 0 -159.5 -65t-61.5 -158z" />
<glyph unicode="&#xf5;" horiz-adv-x="1216" d="M51 518q0 153 71 277.5t199 196t287 71.5q160 0 288 -71.5t198.5 -196t70.5 -277.5q0 -232 -157.5 -388.5t-399.5 -156.5q-241 0 -399 156.5t-158 388.5zM283 1251q47 170 198 170q47 0 114 -30.5t101 -30.5q40 0 52 33q10 25 40 22l101 -18q23 -5 36 -24t9 -42 q-37 -170 -184 -170q-55 0 -132 31t-104 31q-35 0 -47 -33q-5 -12 -17 -19t-24 -4l-100 17q-23 5 -36 24.5t-7 42.5zM387 518q0 -93 61.5 -157t159.5 -64q99 0 161 64t62 157t-62 158t-161 65q-98 0 -159.5 -65t-61.5 -158z" />
<glyph unicode="&#xf6;" horiz-adv-x="1216" d="M51 518q0 153 71 277.5t199 196t287 71.5q160 0 288 -71.5t198.5 -196t70.5 -277.5q0 -232 -157.5 -388.5t-399.5 -156.5q-241 0 -399 156.5t-158 388.5zM215 1327q0 66 47 113t113 47t113 -47t47 -113t-47 -113t-113 -47t-113 47t-47 113zM387 518q0 -93 61.5 -157 t159.5 -64q99 0 161 64t62 157t-62 158t-161 65q-98 0 -159.5 -65t-61.5 -158zM682 1327q0 66 47 113t113 47q67 0 114.5 -47t47.5 -113t-47.5 -113t-114.5 -47q-66 0 -113 47t-47 113z" />
<glyph unicode="&#xf7;" horiz-adv-x="1048" d="M123 547v127q0 31 21.5 52.5t50.5 21.5h657q31 0 52.5 -21.5t21.5 -52.5v-127q0 -31 -21.5 -52.5t-52.5 -21.5h-657q-29 0 -50.5 21.5t-21.5 52.5zM367 188q0 65 45.5 110.5t111.5 45.5q64 0 110 -46t46 -110q0 -66 -45.5 -111.5t-110.5 -45.5q-66 0 -111.5 45.5 t-45.5 111.5zM367 1032q0 65 45.5 111.5t111.5 46.5q64 0 110 -46.5t46 -111.5q0 -64 -45.5 -109.5t-110.5 -45.5q-66 0 -111.5 45t-45.5 110z" />
<glyph unicode="&#xf8;" horiz-adv-x="1216" d="M51 518q0 153 71 277.5t199 196t287 71.5q220 0 373 -131l72 65q10 11 26 10.5t25 -12.5l24 -26q10 -11 9.5 -25.5t-11.5 -25.5l-69 -64q108 -142 108 -336q0 -152 -70.5 -276t-198.5 -195.5t-288 -71.5q-220 0 -370 131l-74 -67q-10 -9 -25.5 -8.5t-25.5 12.5l-25 27 q-9 10 -8.5 25.5t10.5 25.5l72 63q-111 146 -111 334zM387 518q0 -56 25 -104l321 293q-52 34 -125 34q-98 0 -159.5 -64.5t-61.5 -158.5zM485 332q50 -35 123 -35q99 0 161 64t62 157q0 54 -24 107z" />
<glyph unicode="&#xf9;" horiz-adv-x="1222" d="M113 389v576q0 31 21 52t52 21h187q31 0 52 -21t21 -52v-486q0 -87 46.5 -133.5t119.5 -46.5q74 0 120 47.5t46 132.5v486q0 31 21 52t51 21h186q31 0 52.5 -21t21.5 -52v-891q0 -31 -21.5 -52.5t-52.5 -21.5h-205q-22 0 -37.5 16t-15.5 39v39q-103 -119 -284 -119 q-93 0 -167.5 34.5t-120 93.5t-69.5 132t-24 154zM355 1449q10 19 32 19h203q27 0 49.5 -14.5t32.5 -38.5l86 -182q8 -18 -2.5 -34.5t-30.5 -16.5h-160q-51 0 -76 39l-131 190q-13 19 -3 38z" />
<glyph unicode="&#xfa;" horiz-adv-x="1222" d="M113 389v576q0 31 21 52t52 21h187q31 0 52 -21t21 -52v-486q0 -87 46.5 -133.5t119.5 -46.5q74 0 120 47.5t46 132.5v486q0 31 21 52t51 21h186q31 0 52.5 -21t21.5 -52v-891q0 -31 -21.5 -52.5t-52.5 -21.5h-205q-22 0 -37.5 16t-15.5 39v39q-103 -119 -284 -119 q-93 0 -167.5 34.5t-120 93.5t-69.5 132t-24 154zM485 1233l84 182q10 24 32.5 38.5t49.5 14.5h203q22 0 32.5 -19t-1.5 -38l-133 -190q-25 -39 -74 -39h-160q-20 0 -31 17t-2 34z" />
<glyph unicode="&#xfb;" horiz-adv-x="1222" d="M113 389v576q0 31 21 52t52 21h187q31 0 52 -21t21 -52v-486q0 -87 46.5 -133.5t119.5 -46.5q74 0 120 47.5t46 132.5v486q0 31 21 52t51 21h186q31 0 52.5 -21t21.5 -52v-891q0 -31 -21.5 -52.5t-52.5 -21.5h-205q-22 0 -37.5 16t-15.5 39v39q-103 -119 -284 -119 q-93 0 -167.5 34.5t-120 93.5t-69.5 132t-24 154zM284.5 1202q-9.5 20 4.5 39l151 193q27 34 72 34h199q47 0 71 -34l152 -193q14 -19 4 -39t-33 -20h-145q-45 0 -74 37l-74 102l-75 -102q-26 -37 -74 -37h-146q-23 0 -32.5 20z" />
<glyph unicode="&#xfc;" horiz-adv-x="1222" d="M113 389v576q0 31 21 52t52 21h187q31 0 52 -21t21 -52v-486q0 -87 46.5 -133.5t119.5 -46.5q74 0 120 47.5t46 132.5v486q0 31 21 52t51 21h186q31 0 52.5 -21t21.5 -52v-891q0 -31 -21.5 -52.5t-52.5 -21.5h-205q-22 0 -37.5 16t-15.5 39v39q-103 -119 -284 -119 q-93 0 -167.5 34.5t-120 93.5t-69.5 132t-24 154zM217 1327q0 66 47 113t113 47t113 -47t47 -113t-47 -113t-113 -47t-113 47t-47 113zM684 1327q0 66 47 113t113 47q67 0 114.5 -47t47.5 -113t-47.5 -113t-114.5 -47q-66 0 -113 47t-47 113z" />
<glyph unicode="&#xfd;" horiz-adv-x="1169" d="M51 963q-12 26 4 50.5t47 24.5h205q29 0 53 -16.5t33 -44.5l189 -526l190 526q9 28 33 44.5t53 16.5h209q29 0 45 -23.5t6 -51.5q-30 -75 -119.5 -302.5t-164.5 -415.5t-99 -245q-21 -50 -36.5 -84t-40 -79t-47 -75t-55 -62t-66.5 -51t-78.5 -31.5t-94.5 -12.5 q-31 0 -81 4q-21 3 -34.5 18.5t-13.5 36.5v172q0 22 16 37.5t38 17.5q73 1 116.5 42t73.5 128q-6 16 -78.5 187t-171 403.5t-131.5 311.5zM459 1233l84 182q10 24 32.5 38.5t49.5 14.5h202q22 0 32.5 -19t-1.5 -38l-133 -190q-25 -39 -74 -39h-159q-20 0 -31 17t-2 34z" />
<glyph unicode="&#xfe;" horiz-adv-x="1286" d="M113 -324v1684q0 31 21 52.5t50 21.5h189q29 0 50 -21.5t21 -52.5v-424q102 127 293 127q117 0 213.5 -46.5t157.5 -124t94 -174t33 -200.5q0 -103 -33 -199t-94 -173.5t-157.5 -124t-213.5 -46.5q-191 0 -293 127v-426q0 -29 -21 -50t-50 -21h-189q-29 0 -50 21t-21 50z M457 518q0 -101 62.5 -161t158.5 -60q101 0 161 62t60 159q0 98 -60 160.5t-161 62.5q-96 0 -158.5 -60.5t-62.5 -162.5z" />
<glyph unicode="&#xff;" horiz-adv-x="1169" d="M51 963q-12 26 4 50.5t47 24.5h205q29 0 53 -16.5t33 -44.5l189 -526l190 526q9 28 33 44.5t53 16.5h209q29 0 45 -23.5t6 -51.5q-30 -75 -119.5 -302.5t-164.5 -415.5t-99 -245q-21 -50 -36.5 -84t-40 -79t-47 -75t-55 -62t-66.5 -51t-78.5 -31.5t-94.5 -12.5 q-31 0 -81 4q-21 3 -34.5 18.5t-13.5 36.5v172q0 22 16 37.5t38 17.5q73 1 116.5 42t73.5 128q-6 16 -78.5 187t-171 403.5t-131.5 311.5zM190 1327q0 66 47 113t113 47t113 -47t47 -113t-47 -113t-113 -47t-113 47t-47 113zM657 1327q0 66 47 113t113 47q67 0 114.5 -47 t47.5 -113t-47.5 -113t-114.5 -47q-66 0 -113 47t-47 113z" />
<glyph unicode="&#x152;" horiz-adv-x="1949" d="M72 717q0 330 203 523.5t559 193.5h942q29 0 50 -21.5t21 -52.5v-184q0 -29 -21 -50.5t-50 -21.5h-459v-223h393q31 0 52.5 -21.5t21.5 -52.5v-166q0 -31 -21.5 -52.5t-52.5 -21.5h-393v-235h477q31 0 52.5 -21.5t21.5 -52.5v-184q0 -31 -21.5 -52.5t-52.5 -21.5h-960 q-356 0 -559 193.5t-203 523.5zM424 717q0 -184 114 -284.5t296 -100.5h133v772h-133q-181 0 -295.5 -101t-114.5 -286z" />
<glyph unicode="&#x153;" horiz-adv-x="1984" d="M51 518q0 153 70.5 277.5t198.5 196t288 71.5q255 0 404 -168q70 80 168 124t211 44q111 0 207.5 -35.5t172.5 -104t119 -179.5t41 -252q-2 -31 -22.5 -52.5t-50.5 -21.5h-680q26 -88 94 -132t166 -44q112 0 186 63q12 12 30.5 13.5t33.5 -7.5l143 -86q23 -13 27 -38.5 t-13 -45.5q-70 -77 -175 -121.5t-232 -44.5q-275 0 -428 166q-72 -79 -175 -122.5t-227 -43.5q-160 0 -288 71.5t-198.5 195.5t-70.5 276zM385 518q0 -93 62 -157t161 -64q98 0 159.5 64t61.5 157q0 94 -61.5 158.5t-159.5 64.5q-99 0 -161 -64.5t-62 -158.5zM1178 618h448 q-18 90 -77 134.5t-148 44.5q-80 0 -140 -47t-83 -132z" />
<glyph unicode="&#x178;" horiz-adv-x="1425" d="M68 1352q-15 28 0.5 55t46.5 27h217q30 0 56.5 -16.5t39.5 -43.5l285 -549l284 549q13 28 39.5 44t57.5 16h217q31 0 46.5 -27t0.5 -55l-469 -811v-467q0 -31 -21.5 -52.5t-52.5 -21.5h-205q-31 0 -52 21.5t-21 52.5v467zM319 1737q0 66 47 112.5t113 46.5t113 -46.5 t47 -112.5t-47 -113t-113 -47t-113 47t-47 113zM786 1737q0 66 47 112.5t113 46.5q67 0 114.5 -46.5t47.5 -112.5t-47.5 -113t-114.5 -47q-66 0 -113 47t-47 113z" />
<glyph unicode="&#x2c6;" horiz-adv-x="985" d="M166 1202q-10 20 4 39l152 193q27 34 71 34h199q48 0 72 -34l151 -193q14 -19 4 -39t-33 -20h-145q-45 0 -74 37l-73 102l-76 -102q-26 -37 -74 -37h-145q-23 0 -33 20z" />
<glyph unicode="&#x2dc;" horiz-adv-x="917" d="M133 1251q47 170 199 170q47 0 114 -30.5t101 -30.5q39 0 51 33q10 25 41 22l100 -18q23 -5 36 -24t9 -42q-37 -170 -184 -170q-55 0 -131.5 31t-103.5 31q-36 0 -48 -33q-5 -12 -17 -19t-24 -4l-100 17q-23 5 -36 24.5t-7 42.5z" />
<glyph unicode="&#x2000;" horiz-adv-x="996" />
<glyph unicode="&#x2001;" horiz-adv-x="1993" />
<glyph unicode="&#x2002;" horiz-adv-x="996" />
<glyph unicode="&#x2003;" horiz-adv-x="1993" />
<glyph unicode="&#x2004;" horiz-adv-x="664" />
<glyph unicode="&#x2005;" horiz-adv-x="498" />
<glyph unicode="&#x2006;" horiz-adv-x="332" />
<glyph unicode="&#x2007;" horiz-adv-x="332" />
<glyph unicode="&#x2008;" horiz-adv-x="249" />
<glyph unicode="&#x2009;" horiz-adv-x="398" />
<glyph unicode="&#x200a;" horiz-adv-x="110" />
<glyph unicode="&#x2010;" horiz-adv-x="903" d="M123 537v147q0 29 21.5 50.5t52.5 21.5h510q31 0 52 -21t21 -51v-147q0 -29 -21 -50.5t-52 -21.5h-510q-31 0 -52.5 21.5t-21.5 50.5z" />
<glyph unicode="&#x2011;" horiz-adv-x="903" d="M123 537v147q0 29 21.5 50.5t52.5 21.5h510q31 0 52 -21t21 -51v-147q0 -29 -21 -50.5t-52 -21.5h-510q-31 0 -52.5 21.5t-21.5 50.5z" />
<glyph unicode="&#x2012;" horiz-adv-x="903" d="M123 537v147q0 29 21.5 50.5t52.5 21.5h510q31 0 52 -21t21 -51v-147q0 -29 -21 -50.5t-52 -21.5h-510q-31 0 -52.5 21.5t-21.5 50.5z" />
<glyph unicode="&#x2013;" horiz-adv-x="1011" d="M123 537v147q0 29 21.5 50.5t50.5 21.5h620q31 0 52.5 -21.5t21.5 -50.5v-147q0 -29 -21.5 -50.5t-52.5 -21.5h-620q-29 0 -50.5 21.5t-21.5 50.5z" />
<glyph unicode="&#x2014;" horiz-adv-x="1120" d="M123 537v147q0 29 21.5 50.5t50.5 21.5h731q29 0 50 -21.5t21 -50.5v-147q0 -29 -21 -50.5t-50 -21.5h-731q-29 0 -50.5 21.5t-21.5 50.5z" />
<glyph unicode="&#x2018;" horiz-adv-x="589" d="M112.5 1030.5q-7.5 30.5 8.5 56.5l184 295q15 25 43.5 32t54.5 -7l48 -29q24 -13 32.5 -40.5t-2.5 -51.5l-145 -317q-14 -30 -44.5 -40t-58.5 7l-86 49q-27 15 -34.5 45.5z" />
<glyph unicode="&#x2019;" horiz-adv-x="589" d="M106.5 998q-7.5 27 4.5 53l143 317q14 30 44 40t58 -7l86 -49q28 -15 36 -46t-9 -57l-184 -295q-15 -24 -43.5 -31t-53.5 7l-49 28q-25 13 -32.5 40z" />
<glyph unicode="&#x201a;" horiz-adv-x="530" d="M45 -136q-8 27 4 52l144 317q14 30 44 40t58 -7l88 -49q27 -15 34.5 -45.5t-9.5 -56.5l-183 -293q-17 -26 -45 -33.5t-53 6.5l-49 29q-25 13 -33 40z" />
<glyph unicode="&#x201c;" horiz-adv-x="1036" d="M112.5 1030.5q-7.5 30.5 8.5 56.5l184 295q15 25 43.5 32t54.5 -7l48 -29q24 -13 32.5 -40.5t-2.5 -51.5l-145 -317q-14 -30 -44.5 -40t-58.5 7l-86 49q-27 15 -34.5 45.5zM559.5 1030.5q-7.5 30.5 9.5 56.5l183 295q15 25 43.5 32t54.5 -7l47 -29q25 -14 34 -40.5 t-3 -51.5l-146 -317q-12 -29 -43 -39.5t-59 6.5l-86 49q-27 15 -34.5 45.5z" />
<glyph unicode="&#x201d;" horiz-adv-x="1036" d="M106.5 998q-7.5 27 4.5 53l143 317q14 30 44 40t58 -7l86 -49q28 -15 36 -46t-9 -57l-184 -295q-15 -24 -43.5 -31t-53.5 7l-49 28q-25 13 -32.5 40zM553 998q-8 27 4 53l143 317q14 30 44.5 40t58.5 -7l88 -49q26 -15 33.5 -46t-9.5 -57l-182 -295q-17 -24 -45 -31 t-53 7l-49 28q-25 13 -33 40z" />
<glyph unicode="&#x201e;" horiz-adv-x="976" d="M45 -136q-8 27 4 52l144 317q14 30 44 40t58 -7l88 -49q27 -15 34.5 -45.5t-9.5 -56.5l-183 -293q-17 -26 -45 -33.5t-53 6.5l-49 29q-25 13 -33 40zM492.5 -136q-8.5 27 3.5 52l143 317q14 30 44.5 40t59.5 -7l86 -49q27 -15 34.5 -45.5t-9.5 -56.5l-182 -293 q-15 -26 -45 -33.5t-54 6.5l-47 29q-25 13 -33.5 40z" />
<glyph unicode="&#x2022;" horiz-adv-x="733" d="M102 645q0 110 78 187t187 77t186.5 -77t77.5 -187q0 -109 -77.5 -185.5t-186.5 -76.5t-187 77t-78 185z" />
<glyph unicode="&#x2026;" horiz-adv-x="1597" d="M82 158q0 75 54 129.5t130 54.5q75 0 130 -54.5t55 -129.5q0 -76 -55 -130.5t-130 -54.5q-76 0 -130 54t-54 131zM614 158q0 75 54.5 129.5t130.5 54.5q75 0 129.5 -54.5t54.5 -129.5q0 -76 -54.5 -130.5t-129.5 -54.5q-77 0 -131 54.5t-54 130.5zM1147 158 q0 75 54 129.5t130 54.5q75 0 130 -54.5t55 -129.5q0 -76 -55 -130.5t-130 -54.5q-76 0 -130 54t-54 131z" />
<glyph unicode="&#x202f;" horiz-adv-x="398" />
<glyph unicode="&#x2039;" horiz-adv-x="737" d="M102 514q0 28 15 51l184 271q27 41 76 41h176q32 0 48 -29t-3 -57l-188 -277l188 -276q19 -28 3 -57t-48 -29h-176q-49 0 -76 41l-184 270q-15 23 -15 51z" />
<glyph unicode="&#x203a;" horiz-adv-x="739" d="M138.5 181q-15.5 29 4.5 57l187 276l-187 277q-20 28 -4.5 57t49.5 29h177q49 0 73 -41l185 -271q17 -23 17 -51t-17 -51l-185 -270q-24 -41 -73 -41h-177q-34 0 -49.5 29z" />
<glyph unicode="&#x205f;" horiz-adv-x="498" />
<glyph unicode="&#x20ac;" horiz-adv-x="1531" d="M41 557v74q0 15 11 26t26 11h106q0 8 -1 24.5t-1 24.5t1 24.5t1 24.5h-106q-15 0 -26 11t-11 26v74q0 15 11 24.5t26 9.5h127q59 246 250.5 397.5t455.5 151.5q155 0 289.5 -55.5t233.5 -155.5q23 -25 19.5 -59t-32.5 -53l-172 -115q-22 -14 -46.5 -11.5t-43.5 19.5 q-98 92 -248 92q-119 0 -205 -57.5t-131 -153.5h345q14 0 24 -9.5t10 -24.5v-74q0 -15 -10 -26t-24 -11h-383q-2 -16 -2 -49t2 -49h383q14 0 24 -11t10 -26v-74q0 -14 -10.5 -24.5t-23.5 -10.5h-345q45 -96 131 -153.5t205 -57.5q146 0 248 92q19 17 43.5 19.5t46.5 -10.5 l172 -115q29 -19 32.5 -53t-19.5 -60q-98 -100 -232.5 -154.5t-290.5 -54.5q-264 0 -455.5 150.5t-250.5 396.5h-127q-15 0 -26 10.5t-11 24.5z" />
<glyph unicode="&#x25fc;" horiz-adv-x="1034" d="M0 0v1034h1034v-1034h-1034z" />
</font>
</defs>
</svg>
